/* XPM */ 
static const unsigned char * managefolders16_xpm[] = {
"16 16 166 2",
"  	c None",
"! 	c black",
"# 	c #DCAD14",
"$ 	c #E6C143",
"% 	c #EAC94E",
"& 	c #DAB52F",
"' 	c #E8C23F",
"( 	c #FFEDA6",
") 	c #FFE88F",
"* 	c #FAD257",
"+ 	c #D6A20A",
", 	c #D39E01",
"- 	c #D5A002",
". 	c #E0A400",
"0 	c #E0A500",
"1 	c #E2A600",
"2 	c #E1A700",
"3 	c #A07C03",
"4 	c #EBC134",
"5 	c #FACF4D",
"6 	c #F6C13C",
"7 	c #F7C651",
"8 	c #F3C74F",
"9 	c #F0C54C",
": 	c #F2C74B",
"; 	c #EDC147",
"< 	c #EDC248",
"= 	c #ECC044",
"> 	c #EBC53D",
"? 	c #A78112",
"@ 	c #DEB126",
"A 	c #F4D782",
"B 	c #FAEBB3",
"C 	c #FEF3BF",
"D 	c #FEF1B8",
"E 	c #FEF1BA",
"F 	c #F5E4B5",
"G 	c #FEF1B7",
"H 	c #FFEFA5",
"I 	c #FBE58A",
"J 	c #FFF370",
"K 	c #AC8A1B",
"L 	c #F0D379",
"M 	c #FFF8CA",
"N 	c #FFEFB3",
"O 	c #FDEBA6",
"P 	c #FEE995",
"Q 	c #FCE282",
"R 	c #E5C28C",
"S 	c #FBD549",
"T 	c #FCD434",
"U 	c #F9CD24",
"V 	c #FEDD19",
"W 	c #A88208",
"X 	c #F5DB82",
"Y 	c #FEF0AD",
"Z 	c #FDEA9E",
"[ 	c #FDE587",
"] 	c #FEDD61",
"^ 	c #FCD954",
"_ 	c #EECB90",
"` 	c #FFDA3E",
"a 	c #FFDA2B",
"b 	c #FFD429",
"c 	c #FFE223",
"d 	c #A9840B",
"e 	c #F4D56E",
"f 	c #FFEC99",
"g 	c #FDE070",
"h 	c #FFDC52",
"i 	c #FFDE4A",
"j 	c #FDD84F",
"k 	c #E1BD8B",
"l 	c #DEBB41",
"m 	c #DAB64A",
"n 	c #E0B92C",
"o 	c #F1D417",
"p 	c #A6810A",
"q 	c #F4D25F",
"r 	c #FFE268",
"s 	c #FEDA46",
"t 	c #F7D24B",
"u 	c #E9C650",
"v 	c #F8D23E",
"w 	c #DBB588",
"x 	c #CCA87F",
"y 	c #E6C2A0",
"z 	c #C29E70",
"{ 	c #BE9B6B",
"| 	c #836217",
"} 	c #F4CC40",
"~ 	c #FED945",
" !	c #FEDA3C",
"!!	c #E7BF56",
"#!	c #A4875F",
"$!	c #E0BB2B",
"%!	c #DCB785",
"&!	c #EAC194",
"'!	c #E9BB87",
"(!	c #E8B885",
")!	c #F4CC9F",
"*!	c #C09769",
"+!	c #8D6B46",
",!	c #F3C82B",
"-!	c #FED83C",
".!	c #FCD530",
"0!	c #F3CB5F",
"1!	c #BB956B",
"2!	c #E4BC1D",
"3!	c #CFA770",
"4!	c #D2A475",
"5!	c #CA9866",
"6!	c #C3905E",
"7!	c #C79564",
"8!	c #E4B27E",
"9!	c #D3A879",
":!	c #F6C51D",
";!	c #FFD727",
"<!	c #FFDE22",
"=!	c #EABD43",
">!	c #DEB087",
"?!	c #E0B053",
"@!	c #DBB17E",
"A!	c #CD9D6C",
"B!	c #C18E5D",
"C!	c #B78252",
"D!	c #AE7849",
"E!	c #AA7241",
"F!	c #A97747",
"G!	c #5A4303",
"H!	c #654A0F",
"I!	c #463400",
"J!	c #483710",
"K!	c #CEA57B",
"L!	c #ECBB8F",
"M!	c #E1B686",
"N!	c #D0A270",
"O!	c #C89664",
"P!	c #BE8A5A",
"Q!	c #AE7545",
"R!	c #996A3F",
"S!	c #97724D",
"T!	c #E6B988",
"U!	c #DDB180",
"V!	c #D2A471",
"W!	c #CB9A68",
"X!	c #C5925F",
"Y!	c #BA8756",
"Z!	c #BC824F",
"[!	c #7B5734",
"]!	c #B4895C",
"^!	c #DDAE7B",
"_!	c #D3A573",
"`!	c #D09F6D",
"a!	c #CC9A66",
"b!	c #C59160",
"c!	c #BE8855",
"d!	c #6D4D2E",
"e!	c #735230",
"f!	c #C39362",
"g!	c #D6A672",
"h!	c #D4A36F",
"i!	c #D09E6A",
"j!	c #CE9A68",
"k!	c #BB8857",
"l!	c #513820",
"                                ",
"    # $ % &                     ",
"    ' ( ) * + , - . 0 1 2 3     ",
"    4 5 6 7 8 9 : ; < = > ?     ",
"    @ A B C D E F G H I J K     ",
"    L M N O P Q R S T U V W     ",
"    X Y Z [ ] ^ _ ` a b c d     ",
"    e f g h i j k l m n o p     ",
"    q r s t u v w x y z { |     ",
"    } ~  !!!#!$!%!&!'!(!)!*!+!  ",
"    ,!-!.!0!1!2!3!4!5!6!7!8!9!  ",
"    :!;!<!=!>!?!@!A!B!C!D!E!F!  ",
"    G!H!I!J!K!L!M!N!O!P!C!Q!R!  ",
"            S!T!U!V!W!X!Y!Z![!  ",
"              ]!^!_!`!a!b!c!d!  ",
"              e!f!g!h!i!j!k!l!  "};