/* XPM */ 
static const unsigned char * managefolders_xpm[] = {
"32 32 534 2",
"  	c None",
"! 	c black",
"# 	c #DAA909",
"$ 	c #DDAC09",
"% 	c #BE9408",
"& 	c #DCAB09",
"' 	c #F1D162",
"( 	c #FFF0B7",
") 	c #FFEFB0",
"* 	c #FFEDA7",
"+ 	c #FFEB9D",
", 	c #FFE68C",
"- 	c #EAC134",
". 	c #A37F07",
"0 	c #FFEEA8",
"1 	c #FFECA5",
"2 	c #FFEB9F",
"3 	c #FFEA97",
"4 	c #FEE88C",
"5 	c #FFE47E",
"6 	c #FFDE6A",
"7 	c #DAA608",
"8 	c #CB9B07",
"9 	c #D09E08",
": 	c #D2A008",
"; 	c #D2A108",
"< 	c #D2A208",
"= 	c #D3A209",
"> 	c #D3A309",
"? 	c #D3A409",
"@ 	c #D4A409",
"A 	c #D4A509",
"B 	c #FFE993",
"C 	c #FFE88F",
"D 	c #FFE581",
"E 	c #FFDE70",
"F 	c #FFD85F",
"G 	c #FFCE4A",
"H 	c #FEC83A",
"I 	c #FFC330",
"J 	c #FDC32A",
"K 	c #FDC424",
"L 	c #FDC21E",
"M 	c #FDBE18",
"N 	c #FFBD12",
"O 	c #FDBB0C",
"P 	c #FDB808",
"Q 	c #FEBA05",
"R 	c #FEBB03",
"S 	c #FEBC03",
"T 	c #FEBE03",
"U 	c #FEC304",
"V 	c #DBA808",
"W 	c #FFE176",
"X 	c #FFDB68",
"Y 	c #FFCF4C",
"Z 	c #FFC338",
"[ 	c #FAB423",
"] 	c #EFA913",
"^ 	c #EAA80E",
"_ 	c #E1A50B",
"` 	c #D9A209",
"a 	c #D7A008",
"b 	c #D39D08",
"c 	c #CF9B08",
"d 	c #DDAB09",
"e 	c #FFD753",
"f 	c #FAC331",
"g 	c #EBAF18",
"h 	c #E5B42A",
"i 	c #F8E398",
"j 	c #FEEDB3",
"k 	c #FCEBAB",
"l 	c #FFF1B9",
"m 	c #FFF1B7",
"n 	c #FFF1B8",
"o 	c #FFF1BA",
"p 	c #FFF1BC",
"q 	c #FFF2BE",
"r 	c #FFF2C0",
"s 	c #FFF2BF",
"t 	c #FFF1BD",
"u 	c #FFF0B6",
"v 	c #FFEEAC",
"w 	c #FFEC9E",
"x 	c #FEE479",
"y 	c #DBA909",
"z 	c #E1C36B",
"{ 	c #EAC352",
"| 	c #FCEBAF",
"} 	c #FFF3C4",
"~ 	c #FFF0B5",
" !	c #FFEFB1",
"!!	c #FFEEB0",
"#!	c #FFEEAF",
"$!	c #FFEFAE",
"%!	c #FFEFAF",
"&!	c #FFEEAA",
"'!	c #FFECA3",
"(!	c #FEEA99",
")!	c #FFE78A",
"*!	c #FFE067",
"+!	c #CE9A08",
",!	c #D5A209",
"-!	c #D7A20B",
".!	c #F2D57A",
"0!	c #FFF2C1",
"1!	c #FFF3C1",
"2!	c #FFEFB3",
"3!	c #FFEEAD",
"4!	c #FFEDA9",
"5!	c #FFEDA5",
"6!	c #FEEDA4",
"7!	c #FEEDA3",
"8!	c #E5C79F",
"9!	c #E2BF91",
":!	c #FEEB9F",
";!	c #FEE88D",
"<!	c #FEDF65",
"=!	c #FEDB52",
">!	c #FED83F",
"?!	c #FFD530",
"@!	c #FFD324",
"A!	c #FED11D",
"B!	c #F9E499",
"C!	c #FFEFB2",
"D!	c #FFEDA6",
"E!	c #FFEB9C",
"F!	c #FFEA99",
"G!	c #FFE992",
"H!	c #E6C8A0",
"I!	c #E5C091",
"J!	c #FFDC53",
"K!	c #FFD73E",
"L!	c #FED73A",
"M!	c #FFD635",
"N!	c #FED42F",
"O!	c #FFD42B",
"P!	c #FFD225",
"Q!	c #FED221",
"R!	c #FFD11C",
"S!	c #FFF0B4",
"T!	c #FFEEAE",
"U!	c #FEEEA9",
"V!	c #FFEA98",
"W!	c #FFE686",
"X!	c #FFE271",
"Y!	c #FFDE5D",
"Z!	c #E6C79F",
"[!	c #E8C295",
"]!	c #FFD843",
"^!	c #FFD73D",
"_!	c #FED639",
"`!	c #FED633",
"a!	c #FED52F",
"b!	c #FFD32A",
"c!	c #FED220",
"d!	c #FED01C",
"e!	c #FEEDAA",
"f!	c #FFEDA8",
"g!	c #FEECA1",
"h!	c #FFE88D",
"i!	c #FFE275",
"j!	c #FEDD5D",
"k!	c #FFDC52",
"l!	c #FEDB4E",
"m!	c #E7C89F",
"n!	c #EAC397",
"o!	c #FED941",
"p!	c #FFD73C",
"q!	c #FED637",
"r!	c #FFD632",
"s!	c #FED42E",
"t!	c #FFD329",
"u!	c #FED324",
"v!	c #FED21F",
"w!	c #FED01B",
"x!	c #FFECA0",
"y!	c #FFECA1",
"z!	c #FFEC9F",
"{!	c #FFEB9E",
"|!	c #FFEA9B",
"}!	c #FEE57D",
"~!	c #FFDF63",
" #	c #FFDC57",
"!#	c #FFDB50",
"##	c #FFDB4C",
"$#	c #E7C79E",
"%#	c #EECA9A",
"&#	c #FFD83F",
"'#	c #FFD73A",
"(#	c #FED42C",
")#	c #FED327",
"*#	c #FED223",
"+#	c #FED11E",
",#	c #FED11A",
"-#	c #FFEA96",
".#	c #FFE996",
"0#	c #FEE994",
"1#	c #FFE26F",
"2#	c #FEDC57",
"3#	c #FEDC54",
"4#	c #FEDA4D",
"5#	c #FFDA49",
"6#	c #EEC699",
"7#	c #FED638",
"8#	c #FFD42E",
"9#	c #FED42A",
":#	c #FFD326",
";#	c #FED018",
"<#	c #FFE78C",
"=#	c #FFE78B",
">#	c #FFE88C",
"?#	c #FFE57F",
"@#	c #FFDB4E",
"A#	c #FFDA4C",
"B#	c #FEDA49",
"C#	c #FFD946",
"D#	c #D5B389",
"E#	c #E9C395",
"F#	c #92784F",
"G#	c #FED636",
"H#	c #978154",
"I#	c #C8A47B",
"J#	c #98794D",
"K#	c #FED224",
"L#	c #FFD21F",
"M#	c #FED11B",
"N#	c #FED017",
"O#	c #FEE581",
"P#	c #FFE681",
"Q#	c #FEE376",
"R#	c #FEDE5D",
"S#	c #FFDB4D",
"T#	c #FFDA4A",
"U#	c #FEDA48",
"V#	c #FED945",
"W#	c #FFD941",
"X#	c #CAA67D",
"Y#	c #E9C49A",
"Z#	c #D0A97A",
"[#	c #9F8256",
"]#	c #E2C096",
"^#	c #F8D6AA",
"_#	c #D7B084",
"`#	c #847244",
"a#	c #755739",
"b#	c #A7825B",
"c#	c #745C41",
"d#	c #FFE374",
"e#	c #FFE272",
"f#	c #FEDD59",
"g#	c #FEDA4A",
"h#	c #FEDB4A",
"i#	c #FED948",
"j#	c #BD976D",
"k#	c #FFD943",
"l#	c #FED841",
"m#	c #FED73E",
"n#	c #BF9A71",
"o#	c #F7D5AB",
"p#	c #E2BA8D",
"q#	c #D8AD7E",
"r#	c #F6D1A7",
"s#	c #F5D1A3",
"t#	c #F2C794",
"u#	c #D5A775",
"v#	c #D6AF84",
"w#	c #EBC99E",
"x#	c #9E764D",
"y#	c #FEE069",
"z#	c #FFDD56",
"{#	c #FED944",
"|#	c #FFD945",
"}#	c #A27A51",
"~#	c #D6B186",
" $	c #655A2E",
"!$	c #FED73C",
"#$	c #B28B62",
"$$	c #F6D4AA",
"%$	c #F0CB9F",
"&$	c #D7AA79",
"'$	c #EDC697",
"($	c #EFC495",
")$	c #EFBF8D",
"*$	c #DAAB78",
"+$	c #F1CB9D",
",$	c #F4D0A3",
"-$	c #CFA67A",
".$	c #86643D",
"0$	c #694829",
"1$	c #795530",
"2$	c #FED73F",
"3$	c #FED840",
"4$	c #FFD840",
"5$	c #C29B70",
"6$	c #DDB588",
"7$	c #6C572F",
"8$	c #FED737",
"9$	c #FFD535",
":$	c #A67F55",
";$	c #F4D2A6",
"<$	c #EFC99D",
"=$	c #D6A977",
">$	c #E3B584",
"?$	c #E6B886",
"@$	c #E8B784",
"A$	c #D7A772",
"B$	c #EAC291",
"C$	c #EFC798",
"D$	c #EDC291",
"E$	c #CEA06E",
"F$	c #D1A97B",
"G$	c #BE966B",
"H$	c #694B2C",
"I$	c #FFD841",
"J$	c #FFD739",
"K$	c #FED63A",
"L$	c #FFD63B",
"M$	c #FED73B",
"N$	c #FFD73B",
"O$	c #E2BA8B",
"P$	c #765931",
"Q$	c #FED533",
"R$	c #FFD531",
"S$	c #A0774E",
"T$	c #F3CFA3",
"U$	c #E4BB8D",
"V$	c #CB9B69",
"W$	c #CF9F6D",
"X$	c #E0AF7C",
"Y$	c #DBAA78",
"Z$	c #D09E6A",
"[$	c #D09E6C",
"]$	c #E8BB8B",
"^$	c #EABE8E",
"_$	c #D7A46F",
"`$	c #EEC495",
"a$	c #E7BF92",
"b$	c #8C643C",
"c$	c #FED534",
"d$	c #FFD533",
"e$	c #FED635",
"f$	c #FFD636",
"g$	c #D5AF83",
"h$	c #E2B98A",
"i$	c #7E5E36",
"j$	c #FED42D",
"k$	c #9B764A",
"l$	c #E6BD8D",
"m$	c #D2A371",
"n$	c #C89665",
"o$	c #C08D5C",
"p$	c #CA9967",
"q$	c #C99865",
"r$	c #B78252",
"s$	c #B17B4C",
"t$	c #BF8B59",
"u$	c #DFAF7D",
"v$	c #D19D66",
"w$	c #E7BA8A",
"x$	c #EBC091",
"y$	c #976C43",
"z$	c #FFD52D",
"{$	c #FFD52F",
"|$	c #FED530",
"}$	c #FED430",
"~$	c #C8A075",
" %	c #F0C797",
"!%	c #D1A06F",
"#%	c #FED32A",
"$%	c #FFD328",
"%%	c #C0976B",
"&%	c #E0B382",
"'%	c #D2A271",
"(%	c #CA9A68",
")%	c #C18D5D",
"*%	c #C18F5E",
"+%	c #BE8A5A",
",%	c #B5804F",
"-%	c #B07A4A",
".%	c #B17C4A",
"0%	c #AE7747",
"1%	c #B37C49",
"2%	c #CF9961",
"3%	c #FED329",
"4%	c #FFD42A",
"5%	c #FFD32B",
"6%	c #AB8257",
"7%	c #F1C899",
"8%	c #E9B681",
"9%	c #CF9966",
":%	c #BF9465",
";%	c #ECC495",
"<%	c #E0B484",
"=%	c #D4A674",
">%	c #CC9D6B",
"?%	c #C4915F",
"@%	c #C49260",
"A%	c #C08E5D",
"B%	c #B78352",
"C%	c #B37D4E",
"D%	c #B47E4E",
"E%	c #AF7949",
"F%	c #A26B3D",
"G%	c #A66E3F",
"H%	c #BD8652",
"I%	c #7F5B36",
"J%	c #83633A",
"K%	c #E3B98C",
"L%	c #EDC08E",
"M%	c #E6AE79",
"N%	c #E7B481",
"O%	c #E8BE8E",
"P%	c #E0B585",
"Q%	c #D4A776",
"R%	c #CE9F6D",
"S%	c #C79563",
"T%	c #B88353",
"U%	c #B78152",
"V%	c #B07A49",
"W%	c #A66D3F",
"X%	c #A97141",
"Y%	c #B7824F",
"Z%	c #715031",
"[%	c #5F4D3C",
"]%	c #B48A5F",
"^%	c #EDC394",
"_%	c #EBBB8B",
"`%	c #E8B886",
"a%	c #E6BB8B",
"b%	c #DFB482",
"c%	c #D7A977",
"d%	c #C99665",
"e%	c #C99866",
"f%	c #C49160",
"g%	c #BA8554",
"h%	c #BD8857",
"i%	c #BA8453",
"j%	c #A97244",
"k%	c #AC7444",
"l%	c #B68150",
"m%	c #593F25",
"n%	c #89643E",
"o%	c #E2B788",
"p%	c #ECBF8F",
"q%	c #E9BD8C",
"r%	c #E3B786",
"s%	c #DCB07F",
"t%	c #D0A06D",
"u%	c #CC9A68",
"v%	c #CC9C69",
"w%	c #BF8A59",
"x%	c #C08D5B",
"y%	c #BB8755",
"z%	c #AF794A",
"{%	c #AF7848",
"|%	c #AF7947",
"}%	c #AB7A4A",
"~%	c #312213",
" &	c #544434",
"!&	c #AD8257",
"#&	c #EBBD8D",
"$&	c #DFB282",
"%&	c #DAAD7D",
"&&	c #D7AB78",
"'&	c #D1A26E",
"(&	c #CF9D6B",
")&	c #CD9D6A",
"*&	c #C79260",
"+&	c #C5915F",
",&	c #C59260",
"-&	c #B27C4C",
".&	c #B47D4D",
"0&	c #B27C4B",
"1&	c #92673D",
"2&	c #0F0A06",
"3&	c #735030",
"4&	c #CEA172",
"5&	c #E2B483",
"6&	c #DCAF7E",
"7&	c #D9AC7A",
"8&	c #D6AA77",
"9&	c #D4A471",
":&	c #D1A16E",
";&	c #CF9F6C",
"<&	c #C89562",
"=&	c #C99763",
">&	c #C89663",
"?&	c #C08C5B",
"@&	c #B98452",
"A&	c #B78250",
"B&	c #BA8552",
"C&	c #7A5633",
"D&	c #0B0805",
"E&	c #976E44",
"F&	c #D9AA78",
"G&	c #D8AB78",
"H&	c #D7A978",
"I&	c #D6A875",
"J&	c #D4A573",
"K&	c #D5A471",
"L&	c #CD9A66",
"M&	c #CD9B68",
"N&	c #CB9966",
"O&	c #C5905F",
"P&	c #BF8B5A",
"Q&	c #BC8855",
"R&	c #B88352",
"S&	c #543B23",
"T&	c #644629",
"U&	c #B28558",
"V&	c #D4A371",
"W&	c #D5A674",
"X&	c #D7A673",
"Y&	c #D4A46F",
"Z&	c #CF9D6A",
"[&	c #CE9C69",
"]&	c #C89462",
"^&	c #AA794A",
"_&	c #312214",
"`&	c #6D4D2C",
"a&	c #C39362",
"b&	c #D19E6C",
"c&	c #D2A06D",
"d&	c #D6A571",
"e&	c #D5A46E",
"f&	c #D29F6A",
"g&	c #D09D6A",
"h&	c #CC9766",
"i&	c #C99563",
"j&	c #C28E5C",
"k&	c #A37345",
"l&	c #271B10",
"                                                                ",
"                                                                ",
"          # $ $ $ $ $ %                                         ",
"        & ' ( ) * + , - .                                       ",
"        $ 0 1 2 3 4 5 6 7 8 9 : ; < = > > > > ? @ @ A           ",
"        $ B C D E F G H I J K L M N O P Q R R S T U V !         ",
"        $ W X Y Z [ ] ^ _ ` a a a a a a a a a a b a a c         ",
"        d e f g h i j k l ( m n o p q r s t u v w 4 x c !       ",
"        y z { | } s l ~  !!!#!$!%!#!) ) $!&!'!(!)!x *!+!!       ",
"      ,!-!.!0!1!q l 2!3!4!5!6!7!8!9!:!;!x <!=!>!?!@!A!+!!       ",
"      a B!p o l u C!v D!2 E!F!G!H!I!J!K!L!M!N!O!P!Q!R!+!!       ",
"      a S!2!C! !T!U!1 2 V!W!X!Y!Z![!]!^!_!`!a!b!P!c!d!+!!       ",
"      a &!&!e!f!1 g!+ h!i!j!k!l!m!n!o!p!q!r!s!t!u!v!w!+!!       ",
"      a x!y!z!{!|!3 }!~! #J!!###$#%#&#'#M!?!(#)#*#+#,#+!!       ",
"      a -#.#.#0#)!1#2#3#J!!#4#5#$#6#^!7#`!8#9#:#Q!R!;#+!!       ",
"      a <#=#>#?#<!3#k!!#@#A#B#C#D#E#F#G#H#I#J#K#L#M#N#+!!       ",
"      a O#P#Q#R#@#@#@#S#T#U#V#W#X#Y#Z#[#]#^#_#`#a#b#c#+!!       ",
"      a d#e#f#g#h#5#B#i#j#k#l#m#n#o#p#q#r#s#t#u#v#w#x#+!!       ",
"      a y#z#{#|#|#|#{#}#~# $!$'##$$$%$&$'$($)$*$+$,$-$.$0$1$    ",
"      a 3#2$>!3$4$3$>!5$6$7$8$9$:$;$<$=$>$?$@$A$B$C$D$E$F$G$H$  ",
"      a I$J$K$L$M$N$'#_#O$P$Q$R$S$T$U$V$W$X$Y$Z$[$]$^$_$`$a$b$  ",
"      a c$d$e$f$G#G#e$g$h$i$a!j$k$l$m$n$o$p$q$r$s$t$u$v$w$x$y$  ",
"      a z$a!{$|$|$}$N!~$ %!%#%$%%%&%'%(%)%*%+%,%-%.%-%0%1%2%b$  ",
"      a 3%9#4%5%O!O!4%6%7%8%9%:%;%<%=%>%?%@%A%B%C%D%E%F%G%H%I%  ",
"      a a a a a a a a J%K%L%M%N%O%P%Q%R%S%S%?%T%r$U%V%W%X%Y%Z%  ",
"        ! ! ! ! ! ! ! [%]%^%_%`%a%b%c%W$d%e%f%g%h%i%V%j%k%l%m%  ",
"                        n%o%p%q%r%s%&$t%u%v%@%w%x%y%z%{%|%}%~%  ",
"                         &!&#&w$$&%&&&'&(&)&*&+&,&h%-&.&0&1&2&  ",
"                          3&4&5&6&7&8&9&:&;&<&=&>&?&@&A&B&C&D&  ",
"                            E&F&G&H&I&J&K&t%L&M&N&O&P&Q&R&S&    ",
"                            T&U&V&V&W&I&X&Y&Z&Z$[&]&+&P&^&_&    ",
"                              `&a&b&c&9&d&e&f&c&g&h&i&j&k&l&    "};