/* XPM */ 
static const unsigned char * workspacegroup_xpm[] = {
"13 12 8 1",
" 	c None",
"!	c #808080",
"#	c black",
"$	c #5151FF",
"%	c #79FFFF",
"&	c #010101",
"'	c #000080",
"(	c #00FFFF",
"!!!!!!!      ",
"!$$!$$!      ",
"!!!!!!!      ",
"!%%&&&&&&&   ",
"!%%&''&''#   ",
"!!!&##&##&##&",
"!%%&((&((&((&",
"!%%&((&((&((&",
"!!!&&&&&&&&&&",
"!%%&((&((&((&",
"!%%&((&((&((&",
"!!!&&&&&&&&&&"};