<?xml version="1.0" encoding="UTF-8" standalone="no"?>
<!-- Generator: Adobe Illustrator 16.0.3, SVG Export Plug-In . SVG Version: 6.00 Build 0)  -->

<svg
   xmlns:dc="http://purl.org/dc/elements/1.1/"
   xmlns:cc="http://creativecommons.org/ns#"
   xmlns:rdf="http://www.w3.org/1999/02/22-rdf-syntax-ns#"
   xmlns:svg="http://www.w3.org/2000/svg"
   xmlns="http://www.w3.org/2000/svg"
   xmlns:sodipodi="http://sodipodi.sourceforge.net/DTD/sodipodi-0.dtd"
   xmlns:inkscape="http://www.inkscape.org/namespaces/inkscape"
   version="1.1"
   id="Layer_1"
   x="0px"
   y="0px"
   width="288px"
   height="216px"
   viewBox="0 0 288 216"
   enable-background="new 0 0 288 216"
   xml:space="preserve"
   inkscape:version="0.48.4 r9939"
   sodipodi:docname="10-G01519_no bugs layers.svg"><metadata
   id="metadata4127"><rdf:RDF><cc:Work
       rdf:about=""><dc:format>image/svg+xml</dc:format><dc:type
         rdf:resource="http://purl.org/dc/dcmitype/StillImage" /><dc:title></dc:title></cc:Work></rdf:RDF></metadata><defs
   id="defs4125" /><sodipodi:namedview
   pagecolor="#ffffff"
   bordercolor="#666666"
   borderopacity="1"
   objecttolerance="10"
   gridtolerance="10"
   guidetolerance="10"
   inkscape:pageopacity="0"
   inkscape:pageshadow="2"
   inkscape:window-width="1639"
   inkscape:window-height="1339"
   id="namedview4123"
   showgrid="false"
   inkscape:zoom="1.1111111"
   inkscape:cx="145.8"
   inkscape:cy="108"
   inkscape:window-x="3132"
   inkscape:window-y="102"
   inkscape:window-maximized="0"
   inkscape:current-layer="Layer_1" />
<g
   id="Layer_25">
	<g
   id="g3578">
		<path
   fill="#047F34"
   d="M155.273,159.671c-2.734,0.531-5.557,0.82-8.447,0.82c-3.359,0-6.625-0.387-9.766-1.102    c2.486-10.494,1.554-23.275-4.437-29.615c4.213,2.527,6.524,7.518,9.848,7.471c3.371-0.047,4.541-1.248,12.826-7.238    c0,5.336-1.359,13.34,2.012,18.395c3.143,4.717,4.82,6.012,5.943,8.9c-2.246,0.908-4.582,1.635-6.994,2.162"
   id="path3580" />
	</g>
</g>
<g
   id="Layer_24">
	<g
   id="g3583">
		<path
   fill="#3D8C46"
   d="M138.221,159.644c2.782,0.555,5.659,0.848,8.605,0.848c5.428,0,10.623-0.992,15.422-2.793    c-0.863-1.652-2.686-4.369-5.688-8.596c-3.168-4.457-2.387-12.469-2.387-17.271c-7.457,5.393-8.553,6.33-11.585,6.373    c-2.99,0.043-4.282-3.072-7.371-5.529C139.466,137.046,140.348,149.835,138.221,159.644z"
   id="path3585" />
	</g>
</g>

<g
   id="Layer_22">
	<path
   fill="#047F34"
   d="M125.154,107.073c4.529-1.545,8.308-2.518,9.233-2.674c-1.427-7.135-4.928-26.908-21.147-35.191   c-4.784-2.658-7.216-3.344-14.249-2.668l6.599-2.809c23.777,0.748,29.951,22.869,34.121,39.551   c2.293-0.469,8.452-1.062,10.922-0.754c0.928-2.266,1.369-5.912,1.996-9.381c1.053-6.598,3.58-16.85,9.807-28.082   c5.637-10.627,12.869-17.271,21.975-22.396l8.609,6.834c-35.73,11.017-35.25,41.904-35.867,53.333   c2.266,0.207,8.727,1.486,11.275,2.412c-4.363,0.441-6.383,1.996-8.592,4.09c-2.916,2.764-5.604,5.521-5.154,9.627   c0.398,3.664,1.961,6.557,6.76,7.988l0.035,0.014c-1.803,0.516-3.244,1.855-5.252,3.191c-9.111,6.592-10.4,7.912-14.107,7.963   c-3.654,0.053-6.197-5.438-10.832-8.219c-1.647-0.979-4.407-2.832-5.952-3.141c4.325,0,6.333-2.008,7.569-4.943   c1.383-3.285,0.463-8.34-1.391-10.914C129.975,108.771,128.655,108.515,125.154,107.073z"
   id="path3591" />
</g>
<g
   id="Layer_21">
	<path
   fill="#5E9C61"
   d="M126.839,107.073c4.118-1.404,7.395-2.184,8.237-2.324c-1.298-6.488-5.508-27.055-20.069-35.143   c-4.35-2.414-9.623-3.68-16.017-3.066l6.599-2.809c24.433,1.545,29.908,24.994,33.699,40.158c2.106-0.562,9.268-1.193,11.514-0.912   c0.844-2.061,1.24-4.277,1.809-7.432c1.141-7.805,3.527-17.07,8.211-26.555c5.125-9.66,14.32-21.126,23.588-26.322l8.609,6.834   c-30.141,7.417-36.389,33.886-36.18,53.824c2.061,0.189,7.232,0.984,9.549,1.826c-3.965,0.4-5.801,2.182-7.811,4.088   c-2.65,2.512-5.094,6.857-4.686,10.588c0.363,3.332,1.783,5.961,6.145,7.262l0.033,0.016c-1.637,0.467-2.949,1.684-4.773,2.9   c-8.285,5.99-9.455,7.191-12.826,7.238c-3.323,0.047-5.634-4.943-9.848-7.471c-1.498-0.891-4.006-2.576-5.41-2.857   c3.932,0,5.757-1.824,6.88-4.492c1.258-2.988,0.422-7.582-1.264-9.922C131.432,110.562,130.022,108.384,126.839,107.073z"
   id="path3594" />
</g>
<g
   id="Layer_20">
	<path
   fill="#318840"
   d="M122.112,73.513c-1.793-1.4-4.324-3.002-6.6-4.023c11.842,6.949,16.055,20.219,18.16,27.449   c-1.806-7.988,0.843-7.979,3.464,0.258c-1.825-7.348-4.821-17.41-13.012-25.508C128.373,76.339,125.935,76.536,122.112,73.513z"
   id="path3597" />
</g>
<g
   id="Layer_19">
	<path
   fill="#3D8C46"
   d="M160.982,69.489c4.986-10.182,12.74-19.53,23.801-24.714l8.236,4.729   c-9.5,2.223-17.611,7.068-23.025,13.199c4.818-5.992,2.537-7.276-0.096-5.01C167.607,59.667,163.201,65.212,160.982,69.489z"
   id="path3600" />
</g>
<g
   id="Layer_18">
	<path
   fill="#047F34"
   d="M170.75,55.103c3.914-4.19,8.57-7.768,14.033-10.328l8.236,4.729c-6.545,1.531-12.434,4.309-17.232,7.894   C183.52,51.936,180.025,47.387,170.75,55.103"
   id="path3603" />
</g>
<g
   id="Layer_17">
	<polygon
   fill="#5E9C61"
   points="184.783,44.775 193.02,49.503 192.459,47.349 184.41,42.669  "
   id="polygon3606" />
</g>
<g
   id="Layer_16">
	<path
   fill="#5E9C61"
   d="M160.941,68.991c5.125-9.662,12.781-19.032,23.842-24.216l-0.373-2.106   C177.201,47.583,168.307,52.873,160.941,68.991z"
   id="path3609" />
</g>
<g
   id="Layer_15">
	<path
   fill="#047F34"
   d="M115.007,69.606c-4.35-2.414-9.623-3.68-16.017-3.066l3.65,2.246   C106.01,68.646,109.682,67.901,115.007,69.606z"
   id="path3612" />
</g>
<g
   id="Layer_14">
	<path
   fill="#3D8C46"
   d="M145.092,135.765c-1.649,1.293-3.042,0.842-3.977,0.094c-0.937-0.75-3.621-2.447-6.354-4.086   c3.783-0.309,6.121,2.131,7.058,2.691c0.935,0.562,1.373,0.496,2.31-0.254c1.128-0.873,3.751-3.197,7.027-4.834   c1.982-0.992,1.965-3.02,0.492-4.424c-0.463-0.791-3.582-2.527-4.424-2.809c-4.629-1.543,6.83-10.359,6.201-6.74   c-0.748,4.307,0.516,10.625,5.195,11.701C154.875,128.696,146.824,134.407,145.092,135.765z"
   id="path3615" />
</g>
<g
   id="Layer_13">
	<path
   fill="#047F34"
   d="M157.168,127.433c-2.73,1.16-11.076,6.596-12.622,8.033c-1.12,1.039-2.392,0.6-3.074,0.053   c-0.683-0.545-2.499-1.732-4.492-2.928c2.037,0.018,4.154,2.014,4.836,2.424c0.683,0.41,1.614,0.508,2.296-0.037   c0.998-0.826,6.052-4.42,8.585-5.674c2.291-1.131,1.504-3.08,0.959-4.07C154.312,126.032,155.564,127.228,157.168,127.433z"
   id="path3618" />
</g>
<g
   id="Layer_12">
	<path
   fill="#318840"
   d="M159.018,73.63c-2.668,6.391-4.775,13.971-5.688,20.5c2.107-7.441,3.932-5.615,3.58,0.984   c0.07-3.371,1.053-11.584,4.846-20.711C159.158,80.933,157.402,78.616,159.018,73.63z"
   id="path3621" />
</g>
<g
   id="Layer_11">
	<path
   fill="#3D8C46"
   d="M134.894,120.882c1.235-6.742-3.923-11.85-7.573-13.535c3.016-0.939,4.838-1.535,7.85-2.053   c0.889,1.404,3.697,0.562,4.306-0.703c1.076,2.248-6.74,2.107-2.715,13.34C137.279,119.372,135.506,119.192,134.894,120.882"
   id="path3624" />
</g>
<g
   id="Layer_10">
	<path
   fill="#3D8C46"
   d="M149.348,107.718c0.418-5.016-5.521-2.533-8.252-3.699c3.054-0.396,6.737-0.787,9.561-0.561   L149.348,107.718z"
   id="path3627" />
</g>
<g
   id="Layer_9">
	<path
   fill="#49924F"
   d="M134.094,122.425c1.257-2.988,0.421-7.582-1.265-9.922c-1.397-1.941-2.808-4.119-5.99-5.43   C133.181,108.593,137.884,117.931,134.094,122.425z"
   id="path3630" />
</g>
<g
   id="Layer_8">
	<g
   id="g3633">
		<path
   fill="#047F34"
   d="M126.532,106.796c-2.845-1.172-7.084-2.164-9.789,1.672c-2.512,3.562-3.002,9.053-0.737,12.545    c2.537,3.916,6.788,6.641,10.92,6.641c4.133,0,6.05-1.918,7.231-4.723c1.322-3.141,0.443-7.969-1.327-10.428    C131.36,110.464,129.877,108.173,126.532,106.796z"
   id="path3635" />
		<path
   fill="#077F34"
   d="M126.537,106.853c-2.832-1.168-7.054-2.156-9.746,1.664c-2.502,3.549-2.99,9.016-0.734,12.492    c2.525,3.898,6.758,6.613,10.873,6.613s6.024-1.912,7.201-4.703c1.315-3.127,0.441-7.934-1.322-10.385    C131.345,110.505,129.867,108.224,126.537,106.853z"
   id="path3637" />
		<path
   fill="#0A8035"
   d="M126.542,106.909c-2.82-1.162-7.023-2.146-9.705,1.658c-2.491,3.531-2.976,8.975-0.731,12.438    c2.516,3.883,6.729,6.584,10.827,6.584s5.998-1.9,7.17-4.682c1.31-3.113,0.438-7.9-1.316-10.34    C131.33,110.546,129.859,108.274,126.542,106.909z"
   id="path3639" />
		<path
   fill="#0D8035"
   d="M126.547,106.966c-2.808-1.156-6.993-2.137-9.663,1.65c-2.479,3.518-2.964,8.938-0.729,12.385    c2.505,3.865,6.701,6.557,10.781,6.557s5.973-1.895,7.14-4.664c1.304-3.098,0.437-7.865-1.311-10.293    C131.315,110.585,129.85,108.325,126.547,106.966z"
   id="path3641" />
		<path
   fill="#108035"
   d="M126.553,107.022c-2.797-1.152-6.964-2.127-9.622,1.643c-2.469,3.502-2.95,8.9-0.726,12.332    c2.494,3.85,6.673,6.527,10.735,6.527c4.062,0,5.947-1.885,7.107-4.643c1.3-3.086,0.437-7.832-1.304-10.25    C131.299,110.628,129.841,108.376,126.553,107.022z"
   id="path3643" />
		<path
   fill="#138136"
   d="M126.559,107.079c-2.784-1.148-6.934-2.119-9.58,1.637c-2.459,3.486-2.938,8.859-0.723,12.277    c2.483,3.834,6.644,6.5,10.688,6.5c4.046,0,5.922-1.879,7.078-4.623c1.293-3.072,0.434-7.799-1.299-10.207    C131.284,110.667,129.833,108.427,126.559,107.079z"
   id="path3645" />
		<path
   fill="#158136"
   d="M126.563,107.136c-2.771-1.143-6.902-2.109-9.537,1.631c-2.448,3.471-2.926,8.82-0.719,12.223    c2.472,3.816,6.614,6.471,10.641,6.471c4.027,0,5.896-1.869,7.048-4.602c1.287-3.059,0.431-7.764-1.294-10.162    C131.27,110.71,129.824,108.478,126.563,107.136z"
   id="path3647" />
		<path
   fill="#178136"
   d="M126.57,107.192c-2.76-1.137-6.872-2.1-9.497,1.623c-2.438,3.455-2.912,8.781-0.716,12.17    c2.462,3.799,6.585,6.443,10.595,6.443c4.011,0,5.87-1.861,7.017-4.582c1.282-3.047,0.429-7.73-1.288-10.117    C131.253,110.751,129.815,108.528,126.57,107.192z"
   id="path3649" />
		<path
   fill="#198237"
   d="M126.575,107.249c-2.747-1.133-6.843-2.092-9.454,1.615c-2.427,3.441-2.9,8.744-0.714,12.117    c2.451,3.783,6.557,6.416,10.549,6.416c3.991,0,5.844-1.854,6.985-4.562c1.276-3.033,0.427-7.697-1.281-10.074    C131.239,110.79,129.806,108.579,126.575,107.249z"
   id="path3651" />
		<path
   fill="#1A8237"
   d="M126.581,107.306c-2.735-1.127-6.812-2.082-9.414,1.607c-2.416,3.426-2.886,8.705-0.709,12.064    c2.44,3.766,6.527,6.387,10.502,6.387s5.818-1.846,6.955-4.543c1.27-3.02,0.425-7.662-1.277-10.029    C131.224,110.833,129.797,108.63,126.581,107.306z"
   id="path3653" />
		<path
   fill="#1C8238"
   d="M126.586,107.362c-2.724-1.123-6.782-2.074-9.372,1.6c-2.405,3.412-2.874,8.668-0.707,12.012    c2.43,3.75,6.499,6.357,10.455,6.357c3.957,0,5.794-1.836,6.924-4.521c1.266-3.006,0.425-7.629-1.271-9.984    C131.208,110.874,129.789,108.681,126.586,107.362z"
   id="path3655" />
		<path
   fill="#1E8338"
   d="M126.591,107.419c-2.712-1.117-6.752-2.062-9.33,1.594c-2.394,3.395-2.861,8.627-0.703,11.957    c2.419,3.732,6.47,6.33,10.408,6.33c3.94,0,5.768-1.83,6.894-4.502c1.26-2.992,0.422-7.596-1.265-9.939    C131.194,110.913,129.78,108.731,126.591,107.419z"
   id="path3657" />
		<path
   fill="#1F8338"
   d="M126.597,107.476c-2.7-1.113-6.722-2.055-9.289,1.586c-2.384,3.381-2.848,8.59-0.7,11.904    c2.408,3.717,6.441,6.301,10.362,6.301c3.922,0,5.742-1.82,6.862-4.48c1.255-2.98,0.421-7.561-1.259-9.896    C131.178,110.956,129.771,108.782,126.597,107.476z"
   id="path3659" />
		<path
   fill="#218339"
   d="M126.602,107.532c-2.688-1.107-6.691-2.045-9.246,1.58c-2.374,3.365-2.836,8.551-0.697,11.85    c2.396,3.699,6.411,6.273,10.315,6.273s5.716-1.812,6.831-4.461c1.249-2.967,0.419-7.527-1.254-9.852    C131.164,110.995,129.762,108.833,126.602,107.532z"
   id="path3661" />
		<path
   fill="#228439"
   d="M126.608,107.589c-2.675-1.104-6.662-2.037-9.206,1.572c-2.361,3.35-2.822,8.512-0.693,11.797    c2.386,3.684,6.384,6.244,10.27,6.244c3.887,0,5.689-1.803,6.801-4.439c1.242-2.953,0.416-7.494-1.248-9.809    C131.148,111.036,129.753,108.884,126.608,107.589z"
   id="path3663" />
		<path
   fill="#24843A"
   d="M126.613,107.646c-2.662-1.098-6.631-2.027-9.163,1.564c-2.353,3.334-2.811,8.475-0.691,11.744    c2.376,3.666,6.355,6.217,10.224,6.217c3.869,0,5.664-1.797,6.771-4.422c1.236-2.938,0.414-7.459-1.243-9.762    C131.133,111.077,129.745,108.935,126.613,107.646z"
   id="path3665" />
		<path
   fill="#25843A"
   d="M126.619,107.702c-2.65-1.092-6.602-2.018-9.122,1.559c-2.341,3.318-2.797,8.434-0.688,11.689    c2.364,3.648,6.326,6.189,10.177,6.189c3.852,0,5.638-1.789,6.738-4.402c1.232-2.926,0.413-7.426-1.236-9.719    C131.119,111.12,129.736,108.985,126.619,107.702z"
   id="path3667" />
		<path
   fill="#27853B"
   d="M126.624,107.759c-2.638-1.088-6.571-2.008-9.079,1.551c-2.33,3.305-2.785,8.396-0.686,11.637    c2.354,3.633,6.297,6.16,10.13,6.16c3.834,0,5.612-1.779,6.709-4.381c1.226-2.912,0.411-7.391-1.231-9.674    C131.102,111.159,129.727,109.036,126.624,107.759z"
   id="path3669" />
		<path
   fill="#28853B"
   d="M126.63,107.815c-2.628-1.082-6.541-2-9.04,1.543c-2.319,3.289-2.771,8.359-0.681,11.584    c2.343,3.615,6.267,6.133,10.084,6.133c3.815,0,5.586-1.773,6.677-4.361c1.221-2.9,0.409-7.357-1.226-9.631    C131.087,111.2,129.718,109.087,126.63,107.815z"
   id="path3671" />
		<path
   fill="#29853C"
   d="M126.635,107.872c-2.615-1.078-6.512-1.99-8.997,1.537c-2.31,3.273-2.759,8.318-0.678,11.529    c2.332,3.6,6.238,6.104,10.036,6.104c3.799,0,5.561-1.764,6.647-4.34c1.215-2.887,0.406-7.324-1.221-9.586    C131.073,111.243,129.709,109.138,126.635,107.872z"
   id="path3673" />
		<path
   fill="#2A863C"
   d="M126.64,107.927c-2.603-1.072-6.48-1.979-8.954,1.531c-2.299,3.26-2.747,8.281-0.676,11.477    c2.321,3.582,6.21,6.076,9.99,6.076c3.781,0,5.535-1.756,6.617-4.322c1.208-2.871,0.403-7.289-1.215-9.539    C131.058,111.282,129.701,109.188,126.64,107.927z"
   id="path3675" />
		<path
   fill="#2C863D"
   d="M126.646,107.983c-2.591-1.066-6.45-1.971-8.914,1.523c-2.287,3.244-2.733,8.242-0.672,11.424    c2.312,3.566,6.182,6.047,9.944,6.047c3.764,0,5.51-1.746,6.586-4.301c1.202-2.859,0.402-7.256-1.21-9.496    C131.042,111.325,129.692,109.239,126.646,107.983z"
   id="path3677" />
		<path
   fill="#2D873E"
   d="M126.651,108.042c-2.578-1.062-6.42-1.963-8.871,1.516c-2.277,3.229-2.722,8.203-0.67,11.369    c2.301,3.549,6.153,6.02,9.898,6.02s5.483-1.74,6.554-4.281c1.197-2.846,0.402-7.223-1.202-9.451    C131.027,111.364,129.683,109.29,126.651,108.042z"
   id="path3679" />
		<path
   fill="#2E873E"
   d="M126.657,108.097c-2.565-1.057-6.39-1.951-8.83,1.51c-2.266,3.213-2.707,8.166-0.666,11.316    c2.29,3.533,6.124,5.99,9.852,5.99s5.458-1.73,6.523-4.26c1.192-2.832,0.399-7.189-1.197-9.408    C131.012,111.405,129.674,109.341,126.657,108.097z"
   id="path3681" />
		<path
   fill="#2F873F"
   d="M126.663,108.155c-2.554-1.053-6.36-1.943-8.789,1.5c-2.256,3.199-2.694,8.127-0.662,11.264    c2.278,3.516,6.094,5.963,9.805,5.963c3.71,0,5.432-1.723,6.492-4.24c1.187-2.82,0.398-7.154-1.191-9.363    C130.997,111.446,129.666,109.392,126.663,108.155z"
   id="path3683" />
		<path
   fill="#30883F"
   d="M126.667,108.212c-2.542-1.049-6.33-1.936-8.747,1.494c-2.245,3.182-2.683,8.088-0.659,11.209    c2.268,3.498,6.065,5.934,9.759,5.934c3.692,0,5.405-1.715,6.462-4.221c1.181-2.805,0.396-7.119-1.188-9.316    C130.982,111.487,129.657,109.442,126.667,108.212z"
   id="path3685" />
		<path
   fill="#318840"
   d="M126.673,108.269c-2.53-1.043-6.3-1.926-8.705,1.486c-2.234,3.168-2.67,8.051-0.657,11.156    c2.258,3.482,6.037,5.906,9.712,5.906c3.677,0,5.381-1.707,6.432-4.201c1.175-2.791,0.394-7.086-1.181-9.273    C130.966,111.528,129.648,109.493,126.673,108.269z"
   id="path3687" />
		<path
   fill="#328840"
   d="M126.678,108.323c-2.518-1.035-6.27-1.914-8.663,1.48c-2.224,3.154-2.657,8.014-0.653,11.104    c2.246,3.467,6.009,5.877,9.665,5.877c3.657,0,5.355-1.697,6.4-4.18c1.17-2.779,0.393-7.053-1.174-9.23    C130.952,111.569,129.639,109.542,126.678,108.323z"
   id="path3689" />
		<path
   fill="#338941"
   d="M126.684,108.38c-2.506-1.031-6.24-1.906-8.622,1.475c-2.213,3.137-2.645,7.973-0.65,11.049    c2.236,3.449,5.979,5.85,9.619,5.85c3.641,0,5.329-1.689,6.369-4.16c1.164-2.766,0.391-7.018-1.168-9.186    C130.936,111.61,129.63,109.593,126.684,108.38z"
   id="path3691" />
		<path
   fill="#348941"
   d="M126.69,108.437c-2.494-1.025-6.209-1.896-8.58,1.467c-2.202,3.123-2.632,7.936-0.647,10.996    c2.225,3.434,5.949,5.82,9.572,5.82c3.622,0,5.304-1.68,6.339-4.141c1.158-2.75,0.389-6.982-1.164-9.141    C130.921,111.651,129.622,109.644,126.69,108.437z"
   id="path3693" />
		<path
   fill="#358942"
   d="M126.694,108.493c-2.48-1.021-6.179-1.887-8.538,1.459c-2.19,3.107-2.617,7.896-0.643,10.943    c2.213,3.416,5.92,5.793,9.525,5.793s5.277-1.674,6.308-4.121c1.152-2.738,0.387-6.949-1.158-9.096    C130.907,111.694,129.613,109.696,126.694,108.493z"
   id="path3695" />
		<path
   fill="#368A42"
   d="M126.7,108.55c-2.469-1.016-6.147-1.879-8.496,1.451c-2.181,3.094-2.605,7.859-0.641,10.891    c2.202,3.398,5.892,5.764,9.479,5.764c3.588,0,5.252-1.666,6.278-4.1c1.146-2.725,0.384-6.916-1.153-9.053    C130.89,111.733,129.604,109.745,126.7,108.55z"
   id="path3697" />
		<path
   fill="#378A43"
   d="M126.706,108.606c-2.457-1.012-6.118-1.869-8.455,1.445c-2.17,3.076-2.593,7.818-0.638,10.836    c2.191,3.383,5.864,5.736,9.433,5.736c3.57,0,5.227-1.658,6.247-4.08c1.142-2.711,0.382-6.883-1.146-9.008    C130.875,111.774,129.595,109.796,126.706,108.606z"
   id="path3699" />
		<path
   fill="#388B43"
   d="M126.71,108.663c-2.444-1.006-6.088-1.859-8.413,1.439c-2.159,3.061-2.579,7.779-0.634,10.781    c2.181,3.365,5.834,5.707,9.386,5.707c3.553,0,5.2-1.648,6.217-4.059c1.135-2.699,0.38-6.85-1.142-8.965    C130.861,111.815,129.587,109.847,126.71,108.663z"
   id="path3701" />
		<path
   fill="#398B44"
   d="M126.716,108.722c-2.433-1.004-6.058-1.852-8.371,1.43c-2.149,3.047-2.567,7.74-0.632,10.729    c2.17,3.348,5.806,5.68,9.34,5.68c3.535,0,5.175-1.641,6.185-4.039c1.13-2.686,0.38-6.816-1.135-8.92    C130.845,111.856,129.578,109.899,126.716,108.722z"
   id="path3703" />
		<path
   fill="#3A8B44"
   d="M126.722,108.776c-2.421-0.996-6.028-1.842-8.33,1.424c-2.138,3.031-2.555,7.703-0.628,10.676    c2.159,3.332,5.776,5.65,9.293,5.65c3.518,0,5.149-1.633,6.153-4.02c1.125-2.67,0.378-6.779-1.13-8.873    C130.831,111.897,129.569,109.948,126.722,108.776z"
   id="path3705" />
		<path
   fill="#3B8C45"
   d="M126.727,108.833c-2.408-0.99-5.998-1.832-8.288,1.416c-2.127,3.018-2.542,7.666-0.624,10.623    c2.147,3.316,5.747,5.623,9.246,5.623s5.123-1.625,6.124-4c1.118-2.658,0.374-6.746-1.125-8.83    C130.815,111.938,129.56,110.001,126.727,108.833z"
   id="path3707" />
		<path
   fill="#3C8C46"
   d="M126.733,108.89c-2.396-0.986-5.968-1.824-8.247,1.408c-2.116,3.002-2.528,7.627-0.621,10.57    c2.138,3.299,5.719,5.596,9.2,5.596s5.097-1.617,6.093-3.98c1.112-2.645,0.372-6.713-1.119-8.787    C130.8,111.979,129.551,110.052,126.733,108.89z"
   id="path3709" />
		<path
   fill="#3D8C46"
   d="M126.738,108.946c-2.384-0.982-5.938-1.812-8.204,1.402c-2.106,2.986-2.517,7.588-0.619,10.516    c2.127,3.281,5.69,5.566,9.153,5.566c3.465,0,5.072-1.607,6.062-3.959c1.107-2.631,0.37-6.68-1.112-8.742    C130.786,112.021,129.542,110.103,126.738,108.946z"
   id="path3711" />
		<path
   fill="#3E8D47"
   d="M126.743,109.003c-2.371-0.977-5.907-1.805-8.162,1.395c-2.096,2.971-2.504,7.549-0.615,10.463    c2.116,3.266,5.661,5.537,9.106,5.537c3.447,0,5.046-1.6,6.031-3.938c1.103-2.619,0.37-6.646-1.106-8.697    C130.77,112.062,129.534,110.151,126.743,109.003z"
   id="path3713" />
		<path
   fill="#3F8D48"
   d="M126.749,109.06c-2.36-0.971-5.876-1.795-8.121,1.389c-2.085,2.955-2.49,7.51-0.611,10.408    c2.104,3.25,5.631,5.51,9.06,5.51s5.021-1.592,6-3.918c1.097-2.605,0.368-6.611-1.101-8.654    C130.755,112.103,129.526,110.202,126.749,109.06z"
   id="path3715" />
		<path
   fill="#408E48"
   d="M126.753,109.116c-2.347-0.967-5.847-1.787-8.079,1.381c-2.073,2.941-2.478,7.473-0.608,10.355    c2.095,3.232,5.603,5.482,9.014,5.482c3.412,0,4.995-1.584,5.97-3.9c1.09-2.59,0.366-6.576-1.097-8.607    C130.739,112.144,129.516,110.253,126.753,109.116z"
   id="path3717" />
		<path
   fill="#418E49"
   d="M126.76,109.173c-2.336-0.961-5.816-1.777-8.038,1.375c-2.063,2.924-2.465,7.432-0.605,10.299    c2.083,3.217,5.573,5.455,8.967,5.455s4.969-1.576,5.938-3.879c1.085-2.578,0.364-6.543-1.09-8.564    C130.725,112.185,129.507,110.304,126.76,109.173z"
   id="path3719" />
		<path
   fill="#428E49"
   d="M126.765,109.229c-2.323-0.957-5.786-1.768-7.996,1.367c-2.052,2.91-2.453,7.395-0.603,10.248    c2.073,3.199,5.545,5.424,8.921,5.424s4.942-1.566,5.907-3.857c1.08-2.564,0.362-6.51-1.084-8.52    C130.71,112.226,129.499,110.354,126.765,109.229z"
   id="path3721" />
		<path
   fill="#438F4A"
   d="M126.77,109.286c-2.311-0.951-5.756-1.76-7.954,1.359c-2.041,2.895-2.438,7.355-0.6,10.195    c2.062,3.182,5.517,5.396,8.875,5.396s4.917-1.559,5.877-3.838c1.073-2.553,0.359-6.477-1.079-8.475    C130.695,112.267,129.49,110.405,126.77,109.286z"
   id="path3723" />
		<path
   fill="#448F4B"
   d="M126.776,109.343c-2.299-0.947-5.726-1.75-7.913,1.352c-2.031,2.881-2.427,7.318-0.596,10.141    c2.052,3.168,5.486,5.371,8.827,5.371c3.342,0,4.892-1.553,5.848-3.818c1.067-2.539,0.357-6.443-1.074-8.432    C130.679,112.308,129.481,110.456,126.776,109.343z"
   id="path3725" />
		<path
   fill="#44904B"
   d="M126.782,109.399c-2.287-0.941-5.696-1.74-7.872,1.346c-2.02,2.863-2.414,7.279-0.592,10.088    c2.04,3.148,5.458,5.34,8.78,5.34c3.324,0,4.865-1.543,5.815-3.797c1.062-2.525,0.357-6.408-1.067-8.387    C130.664,112.349,129.472,110.507,126.782,109.399z"
   id="path3727" />
		<path
   fill="#45904C"
   d="M126.787,109.456c-2.275-0.938-5.665-1.73-7.829,1.338c-2.01,2.85-2.401,7.24-0.59,10.035    c2.029,3.131,5.429,5.312,8.734,5.312c3.307,0,4.84-1.535,5.784-3.779c1.058-2.512,0.355-6.373-1.062-8.342    C130.65,112.39,129.463,110.558,126.787,109.456z"
   id="path3729" />
		<path
   fill="#46904D"
   d="M126.792,109.513c-2.264-0.932-5.636-1.723-7.788,1.332c-1.999,2.834-2.389,7.201-0.587,9.979    c2.019,3.117,5.401,5.285,8.688,5.285c3.288,0,4.813-1.527,5.754-3.758c1.051-2.498,0.353-6.34-1.057-8.297    C130.634,112.431,129.454,110.608,126.792,109.513z"
   id="path3731" />
		<path
   fill="#47914D"
   d="M126.798,109.569c-2.251-0.928-5.606-1.713-7.747,1.324c-1.987,2.818-2.375,7.164-0.583,9.928    c2.008,3.1,5.371,5.256,8.642,5.256c3.271,0,4.788-1.52,5.723-3.738c1.046-2.484,0.351-6.307-1.05-8.254    C130.619,112.472,129.446,110.659,126.798,109.569z"
   id="path3733" />
		<path
   fill="#48914E"
   d="M126.803,109.626c-2.238-0.922-5.575-1.705-7.704,1.316c-1.978,2.805-2.363,7.125-0.581,9.875    c1.997,3.082,5.342,5.227,8.596,5.227c3.253,0,4.762-1.51,5.692-3.717c1.04-2.473,0.348-6.271-1.045-8.209    C130.604,112.513,129.437,110.71,126.803,109.626z"
   id="path3735" />
		<path
   fill="#49924F"
   d="M126.809,109.683c-2.227-0.916-5.546-1.693-7.664,1.309c-1.967,2.789-2.349,7.088-0.576,9.822    c1.986,3.066,5.313,5.199,8.548,5.199c3.236,0,4.737-1.504,5.662-3.699c1.035-2.457,0.347-6.236-1.039-8.164    C130.588,112.554,129.428,110.761,126.809,109.683z"
   id="path3737" />
		<path
   fill="#4A924F"
   d="M126.815,109.739c-2.215-0.912-5.517-1.686-7.622,1.303c-1.956,2.773-2.337,7.049-0.574,9.766    c1.975,3.051,5.285,5.172,8.503,5.172s4.711-1.494,5.63-3.678c1.028-2.443,0.346-6.203-1.034-8.119    C130.574,112.595,129.419,110.812,126.815,109.739z"
   id="path3739" />
		<path
   fill="#4B9250"
   d="M126.821,109.796c-2.203-0.908-5.485-1.678-7.581,1.295c-1.945,2.76-2.325,7.01-0.571,9.715    c1.965,3.031,5.256,5.143,8.456,5.143c3.201,0,4.686-1.486,5.6-3.658c1.023-2.432,0.344-6.17-1.027-8.074    C130.559,112.636,129.411,110.862,126.821,109.796z"
   id="path3741" />
		<path
   fill="#4B9351"
   d="M126.826,109.853c-2.191-0.902-5.456-1.668-7.539,1.289c-1.935,2.742-2.311,6.971-0.567,9.66    c1.954,3.016,5.228,5.113,8.408,5.113c3.185,0,4.661-1.477,5.57-3.637c1.018-2.418,0.341-6.137-1.022-8.031    C130.543,112.677,129.402,110.913,126.826,109.853z"
   id="path3743" />
		<path
   fill="#4C9351"
   d="M126.831,109.909c-2.179-0.898-5.425-1.658-7.496,1.281c-1.924,2.729-2.299,6.932-0.565,9.605    c1.943,3,5.199,5.088,8.363,5.088c3.165,0,4.634-1.471,5.538-3.617c1.013-2.404,0.34-6.104-1.017-7.988    C130.528,112.718,129.393,110.964,126.831,109.909z"
   id="path3745" />
		<path
   fill="#4D9352"
   d="M126.836,109.966c-2.167-0.893-5.395-1.648-7.455,1.273c-1.914,2.713-2.286,6.895-0.562,9.555    c1.933,2.982,5.169,5.057,8.316,5.057c3.148,0,4.608-1.461,5.508-3.596c1.006-2.393,0.337-6.07-1.012-7.943    C130.513,112.759,129.383,111.015,126.836,109.966z"
   id="path3747" />
		<path
   fill="#4E9453"
   d="M126.841,110.022c-2.154-0.889-5.364-1.641-7.413,1.266c-1.902,2.699-2.273,6.855-0.559,9.502    c1.922,2.965,5.141,5.029,8.27,5.029c3.131,0,4.583-1.453,5.478-3.578c1.001-2.377,0.336-6.033-1.006-7.896    C130.499,112.8,129.375,111.065,126.841,110.022z"
   id="path3749" />
		<path
   fill="#4F9454"
   d="M126.847,110.079c-2.142-0.883-5.334-1.631-7.372,1.26c-1.892,2.682-2.26,6.816-0.556,9.445    c1.912,2.951,5.111,5.002,8.225,5.002c3.112,0,4.557-1.443,5.445-3.557c0.995-2.363,0.335-6-1-7.854    C130.483,112.841,129.366,111.116,126.847,110.079z"
   id="path3751" />
		<path
   fill="#509554"
   d="M126.853,110.136c-2.13-0.879-5.305-1.621-7.33,1.252c-1.882,2.668-2.248,6.779-0.553,9.395    c1.9,2.932,5.083,4.973,8.177,4.973c3.096,0,4.531-1.438,5.415-3.537c0.99-2.35,0.333-5.967-0.994-7.811    C130.467,112.882,129.358,111.167,126.853,110.136z"
   id="path3753" />
		<path
   fill="#509555"
   d="M126.858,110.192c-2.117-0.873-5.274-1.611-7.288,1.246c-1.871,2.65-2.235,6.738-0.549,9.34    c1.89,2.916,5.054,4.943,8.13,4.943c3.077,0,4.505-1.428,5.384-3.516c0.984-2.338,0.331-5.934-0.987-7.766    C130.453,112.923,129.348,111.218,126.858,110.192z"
   id="path3755" />
		<path
   fill="#519556"
   d="M126.864,110.249c-2.106-0.869-5.244-1.604-7.247,1.238c-1.859,2.637-2.222,6.701-0.546,9.287    c1.879,2.898,5.024,4.916,8.084,4.916s4.479-1.42,5.354-3.496c0.978-2.326,0.328-5.9-0.982-7.721    C130.437,112.964,129.34,111.269,126.864,110.249z"
   id="path3757" />
		<path
   fill="#529656"
   d="M126.869,110.306c-2.094-0.863-5.214-1.594-7.204,1.232c-1.85,2.621-2.21,6.66-0.543,9.232    c1.867,2.883,4.995,4.887,8.037,4.887s4.453-1.412,5.323-3.475c0.973-2.312,0.325-5.865-0.978-7.678    C130.422,113.005,129.331,111.319,126.869,110.306z"
   id="path3759" />
		<path
   fill="#539657"
   d="M126.874,110.362c-2.081-0.859-5.184-1.586-7.163,1.225c-1.838,2.605-2.196,6.623-0.539,9.178    c1.857,2.867,4.967,4.861,7.99,4.861c3.024,0,4.429-1.404,5.293-3.457c0.968-2.297,0.324-5.83-0.972-7.631    C130.408,113.046,129.323,111.37,126.874,110.362z"
   id="path3761" />
		<path
   fill="#549758"
   d="M126.879,110.419c-2.069-0.854-5.152-1.576-7.121,1.217c-1.828,2.592-2.185,6.586-0.537,9.127    c1.847,2.848,4.938,4.83,7.945,4.83s4.401-1.395,5.261-3.436c0.962-2.283,0.323-5.797-0.966-7.588    C130.392,113.087,129.314,111.421,126.879,110.419z"
   id="path3763" />
		<path
   fill="#559758"
   d="M126.884,110.476c-2.057-0.848-5.123-1.566-7.079,1.209c-1.817,2.576-2.171,6.547-0.533,9.072    c1.835,2.834,4.909,4.805,7.898,4.805c2.988,0,4.375-1.389,5.229-3.416c0.955-2.271,0.321-5.764-0.959-7.543    C130.376,113.128,129.304,111.472,126.884,110.476z"
   id="path3765" />
		<path
   fill="#559759"
   d="M126.89,110.532c-2.045-0.844-5.092-1.557-7.038,1.201c-1.807,2.562-2.158,6.51-0.53,9.021    c1.824,2.814,4.881,4.775,7.851,4.775c2.974,0,4.352-1.381,5.201-3.396c0.95-2.258,0.318-5.73-0.955-7.498    C130.362,113.169,129.296,111.522,126.89,110.532z"
   id="path3767" />
		<path
   fill="#56985A"
   d="M126.896,110.589c-2.032-0.838-5.062-1.549-6.996,1.195c-1.796,2.545-2.146,6.469-0.527,8.967    c1.812,2.799,4.852,4.746,7.806,4.746c2.953,0,4.323-1.371,5.168-3.377c0.944-2.244,0.316-5.695-0.948-7.453    C130.347,113.21,129.287,111.571,126.896,110.589z"
   id="path3769" />
		<path
   fill="#57985B"
   d="M126.901,110.646c-2.021-0.834-5.032-1.539-6.954,1.188c-1.786,2.531-2.133,6.432-0.524,8.912    c1.803,2.783,4.823,4.719,7.759,4.719c2.937,0,4.299-1.361,5.138-3.354c0.939-2.232,0.315-5.664-0.942-7.41    C130.331,113.251,129.279,111.624,126.901,110.646z"
   id="path3771" />
		<path
   fill="#58995B"
   d="M126.907,110.702c-2.009-0.828-5.002-1.529-6.913,1.182c-1.774,2.516-2.12,6.393-0.521,8.859    c1.792,2.766,4.794,4.689,7.712,4.689c2.92,0,4.274-1.355,5.108-3.336c0.933-2.217,0.313-5.627-0.938-7.365    C130.316,113.292,129.269,111.675,126.907,110.702z"
   id="path3773" />
		<path
   fill="#59995C"
   d="M126.912,110.759c-1.996-0.824-4.972-1.52-6.871,1.174c-1.763,2.5-2.106,6.354-0.518,8.807    c1.781,2.748,4.765,4.662,7.666,4.662s4.247-1.348,5.076-3.316c0.928-2.203,0.312-5.594-0.933-7.32    C130.301,113.333,129.261,111.726,126.912,110.759z"
   id="path3775" />
		<path
   fill="#599A5D"
   d="M126.917,110.815c-1.984-0.818-4.942-1.512-6.829,1.166c-1.754,2.486-2.095,6.316-0.515,8.754    c1.77,2.732,4.735,4.633,7.619,4.633s4.222-1.338,5.046-3.295c0.921-2.191,0.31-5.561-0.927-7.277    C130.287,113.374,129.252,111.776,126.917,110.815z"
   id="path3777" />
		<path
   fill="#5A9A5E"
   d="M126.923,110.872c-1.973-0.814-4.912-1.502-6.789,1.16c-1.741,2.469-2.081,6.275-0.511,8.697    c1.76,2.717,4.708,4.605,7.572,4.605c2.867,0,4.196-1.33,5.016-3.273c0.916-2.178,0.308-5.527-0.921-7.232    C130.271,113.415,129.243,111.827,126.923,110.872z"
   id="path3779" />
		<path
   fill="#5B9A5E"
   d="M126.928,110.929c-1.96-0.809-4.882-1.492-6.746,1.152c-1.731,2.455-2.069,6.238-0.509,8.645    c1.749,2.699,4.679,4.578,7.527,4.578c2.848,0,4.17-1.322,4.983-3.256c0.91-2.162,0.306-5.492-0.914-7.188    C130.255,113.456,129.235,111.878,126.928,110.929z"
   id="path3781" />
		<path
   fill="#5C9B5F"
   d="M126.934,110.985c-1.948-0.805-4.852-1.484-6.705,1.145c-1.722,2.439-2.056,6.201-0.506,8.594    c1.739,2.682,4.649,4.549,7.48,4.549s4.145-1.314,4.953-3.236c0.905-2.15,0.305-5.457-0.909-7.143    C130.242,113.497,129.225,111.929,126.934,110.985z"
   id="path3783" />
		<path
   fill="#5D9B60"
   d="M126.939,111.042c-1.936-0.799-4.82-1.475-6.663,1.139c-1.71,2.424-2.043,6.16-0.502,8.537    c1.728,2.666,4.62,4.521,7.433,4.521c2.814,0,4.12-1.307,4.924-3.215c0.899-2.137,0.302-5.424-0.904-7.098    C130.225,113.538,129.217,111.979,126.939,111.042z"
   id="path3785" />
		<path
   fill="#5D9C60"
   d="M126.945,111.097c-1.924-0.791-4.792-1.465-6.621,1.133c-1.699,2.41-2.03,6.123-0.499,8.486    c1.717,2.648,4.592,4.492,7.387,4.492c2.796,0,4.093-1.299,4.892-3.195c0.895-2.123,0.3-5.391-0.898-7.055    C130.21,113.579,129.208,112.03,126.945,111.097z"
   id="path3787" />
		<path
   fill="#5E9C61"
   d="M126.951,111.155c-1.912-0.789-4.761-1.455-6.581,1.123c-1.688,2.395-2.017,6.084-0.494,8.434    c1.705,2.633,4.562,4.463,7.34,4.463c2.778,0,4.066-1.289,4.86-3.174c0.889-2.111,0.298-5.357-0.892-7.012    C130.196,113.62,129.2,112.081,126.951,111.155z"
   id="path3789" />
		<path
   fill="#5F9D62"
   d="M126.956,111.212c-1.899-0.785-4.73-1.447-6.537,1.117c-1.679,2.379-2.006,6.045-0.493,8.377    c1.694,2.617,4.533,4.438,7.293,4.438c2.761,0,4.041-1.281,4.831-3.154c0.882-2.098,0.296-5.324-0.887-6.967    C130.18,113.661,129.191,112.132,126.956,111.212z"
   id="path3791" />
		<path
   fill="#609D63"
   d="M126.96,111.269c-1.887-0.779-4.7-1.438-6.496,1.109c-1.667,2.363-1.992,6.008-0.489,8.324    c1.685,2.6,4.505,4.41,7.248,4.41s4.015-1.275,4.799-3.137c0.877-2.082,0.294-5.289-0.881-6.92    C130.166,113.702,129.182,112.181,126.96,111.269z"
   id="path3793" />
		<path
   fill="#619D63"
   d="M126.966,111.325c-1.875-0.773-4.67-1.43-6.454,1.102c-1.657,2.348-1.98,5.969-0.487,8.271    c1.674,2.584,4.477,4.381,7.201,4.381c2.726,0,3.99-1.266,4.77-3.115c0.871-2.07,0.292-5.254-0.876-6.877    C130.15,113.741,129.173,112.231,126.966,111.325z"
   id="path3795" />
		<path
   fill="#619E64"
   d="M126.971,111.382c-1.862-0.77-4.64-1.42-6.412,1.096c-1.646,2.332-1.967,5.93-0.483,8.219    c1.663,2.564,4.447,4.35,7.154,4.35c2.708,0,3.964-1.256,4.738-3.094c0.865-2.057,0.291-5.221-0.87-6.832    C130.135,113.784,129.164,112.282,126.971,111.382z"
   id="path3797" />
		<path
   fill="#629E65"
   d="M126.977,111.438c-1.851-0.764-4.609-1.41-6.371,1.088c-1.635,2.318-1.953,5.891-0.479,8.164    c1.651,2.551,4.418,4.324,7.107,4.324c2.69,0,3.938-1.25,4.707-3.074c0.86-2.045,0.289-5.188-0.864-6.789    C130.12,113.825,129.156,112.333,126.977,111.438z"
   id="path3799" />
		<path
   fill="#639F65"
   d="M126.983,111.493c-1.84-0.758-4.58-1.398-6.329,1.084c-1.625,2.303-1.941,5.852-0.478,8.111    c1.641,2.531,4.39,4.295,7.062,4.295c2.673,0,3.912-1.242,4.677-3.055c0.854-2.031,0.286-5.154-0.859-6.746    C130.104,113.864,129.146,112.386,126.983,111.493z"
   id="path3801" />
		<path
   fill="#649F66"
   d="M126.988,111.55c-1.827-0.752-4.55-1.391-6.288,1.076c-1.613,2.287-1.928,5.814-0.474,8.057    c1.63,2.518,4.36,4.268,7.015,4.268c2.656,0,3.887-1.232,4.646-3.035c0.848-2.016,0.285-5.117-0.853-6.699    C130.089,113.907,129.138,112.437,126.988,111.55z"
   id="path3803" />
		<path
   fill="#649F67"
   d="M126.994,111.606c-1.814-0.746-4.52-1.381-6.246,1.068c-1.603,2.273-1.916,5.775-0.472,8.004    c1.62,2.5,4.332,4.238,6.97,4.238s3.86-1.225,4.614-3.014c0.843-2.002,0.283-5.086-0.847-6.654    C130.075,113.948,129.129,112.487,126.994,111.606z"
   id="path3805" />
		<path
   fill="#65A067"
   d="M127,111.663c-1.803-0.742-4.489-1.371-6.205,1.061c-1.593,2.258-1.902,5.738-0.468,7.951    c1.608,2.482,4.303,4.211,6.923,4.211c2.619,0,3.835-1.217,4.584-2.994c0.837-1.99,0.281-5.051-0.843-6.611    C130.059,113.989,129.121,112.536,127,111.663z"
   id="path3807" />
		<path
   fill="#66A068"
   d="M127.004,111.722c-1.79-0.738-4.46-1.365-6.163,1.053c-1.582,2.242-1.89,5.697-0.464,7.896    c1.598,2.467,4.273,4.184,6.875,4.184c2.604,0,3.81-1.209,4.554-2.975c0.831-1.977,0.279-5.018-0.837-6.566    C130.044,114.03,129.112,112.589,127.004,111.722z"
   id="path3809" />
		<path
   fill="#67A169"
   d="M127.01,111.778c-1.778-0.734-4.429-1.355-6.121,1.045c-1.571,2.227-1.878,5.66-0.462,7.844    c1.587,2.449,4.245,4.154,6.829,4.154c2.585,0,3.784-1.199,4.522-2.953c0.827-1.965,0.277-4.984-0.83-6.523    C130.029,114.071,129.103,112.64,127.01,111.778z"
   id="path3811" />
		<path
   fill="#68A16A"
   d="M127.015,111.833c-1.766-0.727-4.398-1.344-6.079,1.039c-1.562,2.213-1.864,5.623-0.458,7.791    c1.575,2.434,4.216,4.125,6.782,4.125c2.567,0,3.759-1.191,4.491-2.934c0.821-1.949,0.275-4.949-0.824-6.477    C130.013,114.112,129.094,112.69,127.015,111.833z"
   id="path3813" />
		<path
   fill="#68A26A"
   d="M127.021,111.89c-1.755-0.723-4.369-1.336-6.038,1.033c-1.55,2.197-1.852,5.582-0.455,7.738    c1.565,2.414,4.187,4.096,6.736,4.096s3.732-1.184,4.46-2.914c0.815-1.936,0.274-4.916-0.818-6.432    C130,114.153,129.084,112.739,127.021,111.89z"
   id="path3815" />
		<path
   fill="#69A26B"
   d="M127.027,111.946c-1.743-0.717-4.339-1.326-5.997,1.025c-1.538,2.182-1.839,5.545-0.452,7.684    c1.555,2.4,4.159,4.068,6.69,4.068c2.532,0,3.706-1.174,4.43-2.893c0.81-1.924,0.271-4.881-0.813-6.389    C129.984,114.194,129.077,112.79,127.027,111.946z"
   id="path3817" />
		<path
   fill="#6AA26C"
   d="M127.032,112.003c-1.73-0.713-4.309-1.316-5.954,1.02c-1.529,2.166-1.826,5.504-0.449,7.629    c1.544,2.383,4.129,4.041,6.644,4.041s3.68-1.168,4.399-2.873c0.803-1.91,0.27-4.848-0.809-6.346    C129.968,114.235,129.068,112.841,127.032,112.003z"
   id="path3819" />
		<path
   fill="#6BA36C"
   d="M127.038,112.06c-1.719-0.707-4.278-1.309-5.914,1.012c-1.517,2.15-1.812,5.467-0.445,7.576    c1.533,2.367,4.102,4.012,6.597,4.012c2.497,0,3.655-1.158,4.369-2.852c0.798-1.896,0.268-4.814-0.803-6.301    C129.954,114.276,129.059,112.892,127.038,112.06z"
   id="path3821" />
		<path
   fill="#6BA36D"
   d="M127.042,112.116c-1.705-0.703-4.247-1.299-5.871,1.004c-1.507,2.137-1.801,5.43-0.442,7.523    c1.522,2.35,4.071,3.984,6.55,3.984c2.479,0,3.63-1.15,4.338-2.832c0.793-1.883,0.266-4.781-0.796-6.256    C129.939,114.317,129.05,112.942,127.042,112.116z"
   id="path3823" />
		<path
   fill="#6CA46E"
   d="M127.048,112.173c-1.693-0.697-4.219-1.289-5.829,0.998c-1.497,2.119-1.788,5.389-0.44,7.469    c1.512,2.332,4.043,3.957,6.504,3.957c2.462,0,3.603-1.145,4.307-2.814c0.787-1.869,0.265-4.744-0.79-6.211    C129.923,114.358,129.042,112.993,127.048,112.173z"
   id="path3825" />
		<path
   fill="#6DA46E"
   d="M127.054,112.229c-1.682-0.691-4.188-1.279-5.788,0.99c-1.486,2.105-1.774,5.352-0.437,7.416    c1.501,2.316,4.014,3.928,6.456,3.928c2.445,0,3.578-1.135,4.277-2.793c0.78-1.857,0.263-4.713-0.785-6.166    C129.908,114.399,129.032,113.044,127.054,112.229z"
   id="path3827" />
		<path
   fill="#6EA56F"
   d="M127.059,112.286c-1.67-0.688-4.157-1.271-5.746,0.982c-1.475,2.09-1.762,5.314-0.434,7.365    c1.49,2.297,3.985,3.896,6.41,3.896c2.428,0,3.553-1.125,4.246-2.771c0.775-1.844,0.26-4.678-0.779-6.123    C129.893,114.44,129.023,113.095,127.059,112.286z"
   id="path3829" />
		<path
   fill="#6FA570"
   d="M127.065,112.343c-1.658-0.682-4.128-1.262-5.705,0.975c-1.464,2.076-1.749,5.275-0.43,7.311    c1.479,2.283,3.956,3.871,6.364,3.871s3.525-1.117,4.214-2.752c0.771-1.83,0.26-4.645-0.774-6.078    C129.878,114.481,129.014,113.146,127.065,112.343z"
   id="path3831" />
		<path
   fill="#6FA671"
   d="M127.07,112.399c-1.646-0.678-4.097-1.252-5.662,0.969c-1.454,2.061-1.737,5.236-0.428,7.256    c1.469,2.268,3.928,3.844,6.317,3.844c2.392,0,3.501-1.111,4.185-2.732c0.764-1.816,0.257-4.611-0.769-6.033    C129.863,114.521,129.006,113.196,127.07,112.399z"
   id="path3833" />
		<path
   fill="#70A671"
   d="M127.076,112.456c-1.634-0.672-4.067-1.242-5.622,0.961c-1.442,2.047-1.724,5.197-0.424,7.203    c1.458,2.25,3.899,3.814,6.271,3.814c2.374,0,3.475-1.102,4.153-2.711c0.759-1.805,0.255-4.578-0.762-5.99    C129.848,114.563,128.997,113.247,127.076,112.456z"
   id="path3835" />
		<path
   fill="#71A672"
   d="M127.082,112.513c-1.622-0.668-4.038-1.234-5.58,0.955c-1.433,2.029-1.711,5.158-0.421,7.148    c1.446,2.232,3.869,3.787,6.226,3.787c2.355,0,3.447-1.094,4.121-2.693c0.754-1.789,0.254-4.543-0.757-5.945    C129.833,114.603,128.989,113.298,127.082,112.513z"
   id="path3837" />
		<path
   fill="#72A773"
   d="M127.086,112.569c-1.609-0.662-4.007-1.225-5.538,0.947c-1.422,2.014-1.698,5.121-0.418,7.096    c1.437,2.217,3.841,3.758,6.179,3.758c2.339,0,3.424-1.086,4.091-2.672c0.748-1.777,0.252-4.508-0.751-5.9    C129.817,114.644,128.979,113.349,127.086,112.569z"
   id="path3839" />
		<path
   fill="#73A773"
   d="M127.091,112.626c-1.596-0.658-3.977-1.217-5.496,0.939c-1.41,2-1.685,5.082-0.414,7.043    c1.425,2.199,3.812,3.73,6.131,3.73c2.321,0,3.398-1.078,4.062-2.652c0.741-1.764,0.249-4.475-0.746-5.855    C129.802,114.687,128.971,113.399,127.091,112.626z"
   id="path3841" />
		<path
   fill="#73A874"
   d="M127.097,112.683c-1.585-0.652-3.946-1.207-5.454,0.932c-1.4,1.984-1.673,5.045-0.412,6.99    c1.415,2.184,3.784,3.703,6.086,3.703c2.304,0,3.371-1.07,4.03-2.635c0.734-1.748,0.247-4.439-0.74-5.811    C129.788,114.726,128.961,113.45,127.097,112.683z"
   id="path3843" />
		<path
   fill="#74A875"
   d="M127.102,112.739c-1.572-0.646-3.915-1.197-5.413,0.926c-1.389,1.969-1.659,5.004-0.407,6.936    c1.403,2.166,3.754,3.674,6.038,3.674c2.286,0,3.347-1.062,4-2.611c0.73-1.738,0.245-4.408-0.735-5.77    C129.772,114.769,128.953,113.501,127.102,112.739z"
   id="path3845" />
		<path
   fill="#75A976"
   d="M127.108,112.796c-1.561-0.643-3.887-1.188-5.371,0.918c-1.379,1.955-1.647,4.967-0.405,6.883    c1.394,2.15,3.725,3.645,5.992,3.645c2.27,0,3.32-1.053,3.969-2.592c0.726-1.723,0.243-4.373-0.729-5.723    C129.757,114.81,128.945,113.552,127.108,112.796z"
   id="path3847" />
		<path
   fill="#76A976"
   d="M127.113,112.853c-1.548-0.639-3.855-1.18-5.329,0.91c-1.368,1.941-1.634,4.93-0.401,6.83    c1.382,2.133,3.695,3.617,5.946,3.617c2.25,0,3.293-1.045,3.936-2.572c0.721-1.709,0.243-4.34-0.722-5.678    C129.742,114.851,128.935,113.603,127.113,112.853z"
   id="path3849" />
		<path
   fill="#77AA77"
   d="M127.119,112.909c-1.536-0.633-3.826-1.17-5.288,0.904c-1.356,1.924-1.621,4.889-0.398,6.775    c1.371,2.117,3.668,3.59,5.899,3.59c2.233,0,3.269-1.037,3.907-2.553c0.714-1.697,0.239-4.305-0.718-5.635    C129.727,114.89,128.927,113.653,127.119,112.909z"
   id="path3851" />
		<path
   fill="#77AA78"
   d="M127.125,112.966c-1.524-0.629-3.796-1.16-5.246,0.898c-1.347,1.906-1.608,4.85-0.396,6.721    c1.361,2.1,3.639,3.561,5.854,3.561c2.216,0,3.242-1.029,3.876-2.531c0.708-1.684,0.237-4.271-0.713-5.59    C129.711,114.933,128.917,113.704,127.125,112.966z"
   id="path3853" />
		<path
   fill="#78AA78"
   d="M127.129,113.022c-1.512-0.623-3.765-1.152-5.204,0.891c-1.336,1.893-1.596,4.811-0.393,6.668    c1.35,2.082,3.609,3.531,5.807,3.531c2.198,0,3.217-1.02,3.845-2.512c0.703-1.668,0.237-4.236-0.706-5.545    C129.696,114.972,128.91,113.755,127.129,113.022z"
   id="path3855" />
		<path
   fill="#79AB79"
   d="M127.134,113.079c-1.499-0.619-3.735-1.143-5.161,0.883c-1.326,1.877-1.584,4.773-0.391,6.615    c1.34,2.066,3.581,3.504,5.761,3.504c2.181,0,3.191-1.012,3.814-2.492c0.696-1.656,0.234-4.203-0.7-5.5    C129.682,115.013,128.9,113.806,127.134,113.079z"
   id="path3857" />
		<path
   fill="#7AAB7A"
   d="M127.14,113.136c-1.487-0.613-3.704-1.133-5.121,0.875c-1.314,1.863-1.57,4.736-0.386,6.562    c1.329,2.049,3.552,3.477,5.713,3.477c2.163,0,3.166-1.006,3.784-2.473c0.69-1.643,0.232-4.168-0.694-5.457    C129.667,115.056,128.891,113.856,127.14,113.136z"
   id="path3859" />
		<path
   fill="#7BAC7A"
   d="M127.146,113.192c-1.476-0.609-3.675-1.123-5.079,0.869c-1.305,1.848-1.558,4.695-0.384,6.508    c1.318,2.033,3.523,3.447,5.668,3.447s3.14-0.996,3.752-2.451c0.686-1.629,0.23-4.135-0.689-5.412    C129.651,115.095,128.882,113.907,127.146,113.192z"
   id="path3861" />
		<path
   fill="#7BAC7B"
   d="M127.151,113.249c-1.463-0.604-3.645-1.115-5.037,0.861c-1.293,1.832-1.545,4.658-0.38,6.455    c1.307,2.016,3.493,3.418,5.62,3.418s3.114-0.986,3.722-2.43c0.681-1.617,0.229-4.102-0.683-5.369    C129.636,115.138,128.874,113.958,127.151,113.249z"
   id="path3863" />
		<path
   fill="#7CAD7C"
   d="M127.157,113.306c-1.451-0.6-3.614-1.105-4.996,0.855c-1.283,1.816-1.532,4.617-0.377,6.4    c1.297,2,3.466,3.391,5.574,3.391c2.11,0,3.089-0.98,3.69-2.412c0.675-1.602,0.228-4.066-0.677-5.322    C129.621,115.177,128.865,114.009,127.157,113.306z"
   id="path3865" />
		<path
   fill="#7DAD7D"
   d="M127.162,113.362c-1.438-0.594-3.584-1.098-4.953,0.848c-1.272,1.801-1.52,4.58-0.375,6.348    c1.286,1.982,3.437,3.363,5.528,3.363s3.062-0.973,3.661-2.393c0.667-1.588,0.225-4.033-0.673-5.277    C129.606,115.218,128.856,114.06,127.162,113.362z"
   id="path3867" />
		<path
   fill="#7EAE7D"
   d="M127.167,113.419c-1.427-0.59-3.554-1.086-4.913,0.84c-1.261,1.787-1.505,4.541-0.37,6.295    c1.274,1.967,3.407,3.334,5.48,3.334c2.075,0,3.038-0.963,3.631-2.371c0.662-1.576,0.223-4-0.667-5.234    C129.591,115.259,128.847,114.11,127.167,113.419z"
   id="path3869" />
		<path
   fill="#7FAE7E"
   d="M127.172,113.476c-1.414-0.584-3.523-1.078-4.87,0.832c-1.251,1.771-1.494,4.504-0.367,6.242    c1.263,1.949,3.378,3.305,5.435,3.305s3.011-0.953,3.599-2.35c0.657-1.562,0.221-3.967-0.661-5.189    C129.576,115.3,128.838,114.161,127.172,113.476z"
   id="path3871" />
		<path
   fill="#7FAF7F"
   d="M127.178,113.532c-1.403-0.58-3.494-1.068-4.829,0.826c-1.239,1.756-1.481,4.465-0.364,6.188    c1.252,1.934,3.35,3.277,5.389,3.277s2.985-0.947,3.567-2.33c0.652-1.549,0.22-3.932-0.654-5.146    C129.56,115.341,128.83,114.212,127.178,113.532z"
   id="path3873" />
		<path
   fill="#80AF80"
   d="M127.184,113.589c-1.392-0.574-3.464-1.061-4.788,0.818c-1.229,1.742-1.468,4.426-0.361,6.135    c1.241,1.916,3.321,3.25,5.342,3.25c2.022,0,2.96-0.939,3.537-2.311c0.646-1.537,0.217-3.898-0.649-5.102    C129.544,115.382,128.821,114.263,127.184,113.589z"
   id="path3875" />
		<path
   fill="#81B080"
   d="M127.189,113.646c-1.378-0.568-3.433-1.051-4.746,0.811c-1.218,1.727-1.454,4.389-0.357,6.082    c1.23,1.9,3.292,3.221,5.295,3.221c2.005,0,2.934-0.93,3.506-2.291c0.642-1.521,0.216-3.863-0.644-5.055    C129.531,115.423,128.812,114.313,127.189,113.646z"
   id="path3877" />
		<path
   fill="#82B081"
   d="M127.195,113.702c-1.366-0.564-3.404-1.041-4.705,0.805c-1.207,1.711-1.442,4.35-0.354,6.027    c1.22,1.883,3.263,3.191,5.249,3.191s2.907-0.922,3.476-2.27c0.636-1.51,0.215-3.83-0.638-5.012    C129.515,115.464,128.803,114.364,127.195,113.702z"
   id="path3879" />
		<path
   fill="#83B182"
   d="M127.201,113.759c-1.354-0.561-3.373-1.031-4.663,0.797c-1.197,1.695-1.43,4.311-0.352,5.975    c1.209,1.865,3.234,3.164,5.202,3.164c1.97,0,2.882-0.914,3.444-2.25c0.63-1.496,0.212-3.795-0.633-4.969    C129.5,115.505,128.794,114.415,127.201,113.759z"
   id="path3881" />
		<path
   fill="#83B182"
   d="M127.206,113.815c-1.342-0.555-3.343-1.023-4.621,0.789c-1.187,1.682-1.416,4.273-0.348,5.922    c1.197,1.85,3.204,3.137,5.154,3.137c1.952,0,2.856-0.906,3.415-2.23c0.623-1.482,0.21-3.762-0.627-4.924    C129.485,115.546,128.786,114.466,127.206,113.815z"
   id="path3883" />
		<path
   fill="#84B183"
   d="M127.211,113.872c-1.33-0.549-3.313-1.014-4.579,0.783c-1.176,1.664-1.404,4.232-0.346,5.867    c1.188,1.832,3.176,3.107,5.109,3.107c1.935,0,2.83-0.898,3.383-2.209c0.618-1.469,0.208-3.729-0.621-4.879    C129.469,115.587,128.777,114.517,127.211,113.872z"
   id="path3885" />
		<path
   fill="#85B284"
   d="M127.217,113.929c-1.319-0.545-3.283-1.004-4.539,0.775c-1.164,1.65-1.391,4.195-0.342,5.814    c1.177,1.816,3.147,3.078,5.062,3.078c1.917,0,2.805-0.889,3.353-2.189c0.613-1.455,0.206-3.693-0.615-4.834    C129.455,115.628,128.768,114.567,127.217,113.929z"
   id="path3887" />
		<path
   fill="#86B285"
   d="M127.222,113.985c-1.307-0.539-3.253-0.996-4.496,0.768c-1.154,1.637-1.379,4.158-0.339,5.762    c1.166,1.799,3.118,3.051,5.016,3.051c1.899,0,2.779-0.881,3.322-2.17c0.606-1.441,0.204-3.66-0.61-4.791    C129.44,115.669,128.76,114.618,127.222,113.985z"
   id="path3889" />
		<g
   id="g3891">
			<path
   fill="#86B285"
   d="M127.228,114.042c-1.295-0.535-3.223-0.986-4.455,0.762c-1.144,1.619-1.365,4.117-0.335,5.707     c1.155,1.783,3.089,3.023,4.97,3.023s2.753-0.873,3.29-2.15c0.601-1.428,0.203-3.627-0.604-4.746     C129.424,115.71,128.75,114.669,127.228,114.042z"
   id="path3893" />
		</g>
	</g>
</g>
<g
   id="Layer_7">
	<g
   id="g3896">
		<path
   fill="#047F34"
   d="M166.389,105.153c3.371-0.34,8.137,0.975,9.689,4.635c1.965,4.633,0.047,10.225-3.441,13.199    c-3.912,3.332-8.238,5.406-12.6,4.104c-4.361-1.301-5.781-3.93-6.145-7.262c-0.408-3.73,2.035-8.076,4.686-10.588    C160.588,107.335,162.424,105.554,166.389,105.153z"
   id="path3898" />
		<g
   id="g3900">
			<path
   fill="#0D8035"
   d="M154.066,119.798c-0.389-3.689,2.025-7.963,4.641-10.441c1.99-1.885,3.832-3.645,7.748-4.027     c3.332-0.324,8.021,0.98,9.547,4.604c1.932,4.58,0.029,10.102-3.422,13.043c-3.865,3.291-8.158,5.322-12.467,4.027     C155.801,125.706,154.414,123.089,154.066,119.798z"
   id="path3902" />
		</g>
		<g
   id="g3904">
			<path
   fill="#138136"
   d="M154.242,119.767c-0.373-3.648,2.014-7.852,4.594-10.295c1.971-1.865,3.818-3.602,7.688-3.967     c3.291-0.311,7.906,0.984,9.404,4.574c1.895,4.525,0.01,9.977-3.406,12.885c-3.818,3.25-8.074,5.24-12.332,3.951     C155.928,125.622,154.574,123.019,154.242,119.767z"
   id="path3906" />
		</g>
		<g
   id="g3908">
			<path
   fill="#198237"
   d="M154.416,119.733c-0.354-3.604,2.004-7.736,4.549-10.146c1.953-1.846,3.807-3.557,7.625-3.906     c3.252-0.295,7.793,0.988,9.262,4.545c1.859,4.471-0.008,9.852-3.389,12.729c-3.771,3.205-7.992,5.156-12.195,3.873     C156.053,125.538,154.732,122.948,154.416,119.733z"
   id="path3910" />
		</g>
		<g
   id="g3912">
			<path
   fill="#1C8238"
   d="M154.592,119.702c-0.338-3.562,1.99-7.625,4.502-10c1.934-1.826,3.793-3.514,7.564-3.844     c3.209-0.281,7.674,0.992,9.119,4.512c1.824,4.416-0.029,9.729-3.373,12.572c-3.723,3.164-7.906,5.074-12.061,3.795     C156.18,125.454,154.893,122.876,154.592,119.702z"
   id="path3914" />
		</g>
		<g
   id="g3916">
			<path
   fill="#218339"
   d="M154.766,119.671c-0.318-3.52,1.98-7.512,4.455-9.854c1.916-1.805,3.783-3.471,7.504-3.785     c3.17-0.264,7.561,1,8.977,4.482c1.789,4.365-0.045,9.607-3.355,12.416c-3.676,3.121-7.824,4.99-11.926,3.719     C156.305,125.37,155.051,122.806,154.766,119.671z"
   id="path3918" />
		</g>
		<g
   id="g3920">
			<path
   fill="#24843A"
   d="M154.941,119.64c-0.303-3.479,1.969-7.4,4.408-9.705c1.896-1.787,3.77-3.43,7.443-3.727     c3.129-0.248,7.443,1.004,8.834,4.453c1.754,4.311-0.064,9.482-3.34,12.26c-3.627,3.078-7.74,4.906-11.791,3.641     C156.432,125.286,155.211,122.735,154.941,119.64z"
   id="path3922" />
		</g>
		<g
   id="g3924">
			<path
   fill="#27853B"
   d="M155.115,119.608c-0.283-3.436,1.959-7.287,4.363-9.559c1.879-1.768,3.758-3.385,7.381-3.666     c3.09-0.234,7.322,1.012,8.691,4.422c1.711,4.26-0.084,9.359-3.322,12.104c-3.58,3.035-7.656,4.824-11.654,3.564     C156.557,125.202,155.371,122.665,155.115,119.608z"
   id="path3926" />
		</g>
		<g
   id="g3928">
			<path
   fill="#2A863C"
   d="M155.291,119.577c-0.268-3.395,1.945-7.176,4.316-9.412c1.859-1.746,3.744-3.342,7.318-3.605     c3.051-0.219,7.207,1.018,8.551,4.393c1.672,4.205-0.104,9.234-3.307,11.947c-3.531,2.992-7.574,4.74-11.52,3.486     C156.684,125.118,155.531,122.595,155.291,119.577z"
   id="path3930" />
		</g>
		<g
   id="g3932">
			<path
   fill="#2D873E"
   d="M155.465,119.544c-0.248-3.35,1.936-7.062,4.271-9.264c1.84-1.727,3.73-3.299,7.258-3.543     c3.01-0.205,7.09,1.021,8.406,4.361c1.637,4.15-0.121,9.111-3.287,11.789c-3.486,2.951-7.492,4.656-11.387,3.408     C156.809,125.034,155.689,122.524,155.465,119.544z"
   id="path3934" />
		</g>
		<g
   id="g3936">
			<path
   fill="#30883F"
   d="M155.641,119.513c-0.232-3.307,1.924-6.949,4.225-9.115c1.82-1.709,3.719-3.258,7.195-3.484     c2.969-0.189,6.975,1.025,8.266,4.33c1.6,4.098-0.141,8.988-3.273,11.633c-3.436,2.908-7.408,4.574-11.25,3.332     C156.936,124.95,155.85,122.452,155.641,119.513z"
   id="path3938" />
		</g>
		<g
   id="g3940">
			<path
   fill="#328840"
   d="M155.814,119.481c-0.213-3.266,1.914-6.836,4.178-8.969c1.803-1.689,3.707-3.213,7.137-3.424     c2.928-0.176,6.857,1.031,8.121,4.301c1.564,4.045-0.158,8.863-3.254,11.477c-3.391,2.865-7.326,4.49-11.115,3.254     C157.061,124.866,156.008,122.382,155.814,119.481z"
   id="path3942" />
		</g>
		<g
   id="g3944">
			<path
   fill="#358942"
   d="M155.99,119.448c-0.197-3.221,1.902-6.723,4.131-8.82c1.783-1.668,3.695-3.17,7.074-3.363     c2.889-0.16,6.742,1.037,7.98,4.271c1.527,3.988-0.178,8.738-3.238,11.318c-3.344,2.824-7.242,4.408-10.98,3.178     C157.188,124.782,156.168,122.312,155.99,119.448z"
   id="path3946" />
		</g>
		<g
   id="g3948">
			<path
   fill="#388B43"
   d="M156.164,119.419c-0.18-3.182,1.891-6.613,4.086-8.676c1.766-1.648,3.682-3.127,7.012-3.303     c2.85-0.145,6.627,1.041,7.84,4.24c1.488,3.938-0.197,8.615-3.223,11.164c-3.295,2.781-7.158,4.324-10.846,3.098     C157.312,124.698,156.326,122.239,156.164,119.419z"
   id="path3950" />
		</g>
		<g
   id="g3952">
			<path
   fill="#3A8B44"
   d="M156.338,119.388c-0.16-3.141,1.883-6.502,4.041-8.529c1.746-1.629,3.668-3.082,6.951-3.242     c2.809-0.131,6.51,1.047,7.695,4.211c1.453,3.881-0.215,8.49-3.205,11.006c-3.248,2.738-7.076,4.24-10.709,3.021     C157.438,124.614,156.486,122.169,156.338,119.388z"
   id="path3954" />
		</g>
		<g
   id="g3956">
			<path
   fill="#3D8C46"
   d="M156.514,119.354c-0.143-3.096,1.869-6.387,3.994-8.381c1.727-1.609,3.656-3.039,6.889-3.182     c2.77-0.115,6.395,1.053,7.553,4.18c1.418,3.83-0.232,8.367-3.188,10.85c-3.199,2.697-6.992,4.158-10.574,2.945     C157.564,124.53,156.645,122.099,156.514,119.354z"
   id="path3958" />
		</g>
		<g
   id="g3960">
			<path
   fill="#3F8D48"
   d="M156.688,119.323c-0.125-3.055,1.859-6.273,3.949-8.232c1.709-1.59,3.643-2.998,6.828-3.123     c2.727-0.1,6.277,1.057,7.41,4.15c1.381,3.775-0.252,8.244-3.17,10.693c-3.154,2.652-6.91,4.072-10.441,2.867     C157.689,124.446,156.805,122.028,156.688,119.323z"
   id="path3962" />
		</g>
		<g
   id="g3964">
			<path
   fill="#428E49"
   d="M156.863,119.292c-0.107-3.012,1.848-6.162,3.902-8.086c1.689-1.57,3.631-2.955,6.766-3.062     c2.688-0.084,6.164,1.062,7.27,4.121c1.344,3.719-0.273,8.117-3.154,10.537c-3.107,2.609-6.828,3.988-10.307,2.789     C157.816,124.362,156.963,121.956,156.863,119.292z"
   id="path3966" />
		</g>
		<g
   id="g3968">
			<path
   fill="#448F4B"
   d="M157.037,119.261c-0.09-2.971,1.838-6.049,3.857-7.939c1.67-1.549,3.617-2.91,6.705-3.002     c2.646-0.068,6.045,1.066,7.125,4.09c1.309,3.668-0.289,7.996-3.137,10.381c-3.059,2.568-6.744,3.906-10.172,2.711     C157.941,124.278,157.123,121.886,157.037,119.261z"
   id="path3970" />
		</g>
		<g
   id="g3972">
			<path
   fill="#46904D"
   d="M157.213,119.229c-0.072-2.928,1.824-5.938,3.811-7.791c1.65-1.533,3.604-2.869,6.643-2.943     c2.607-0.055,5.93,1.072,6.982,4.061c1.273,3.611-0.307,7.871-3.119,10.223c-3.012,2.525-6.662,3.824-10.035,2.635     C158.068,124.194,157.283,121.815,157.213,119.229z"
   id="path3974" />
		</g>
		<g
   id="g3976">
			<path
   fill="#48914E"
   d="M157.387,119.196c-0.055-2.883,1.814-5.824,3.764-7.643c1.633-1.512,3.594-2.826,6.582-2.883     c2.566-0.039,5.816,1.076,6.842,4.031c1.236,3.559-0.326,7.746-3.104,10.066c-2.963,2.482-6.578,3.74-9.9,2.557     C158.193,124.112,157.443,121.745,157.387,119.196z"
   id="path3978" />
		</g>
		<g
   id="g3980">
			<path
   fill="#4A924F"
   d="M157.561,119.165c-0.035-2.842,1.801-5.715,3.719-7.496c1.611-1.494,3.58-2.781,6.521-2.82     c2.525-0.027,5.699,1.08,6.699,3.998c1.201,3.504-0.348,7.623-3.088,9.91c-2.916,2.439-6.494,3.658-9.766,2.48     C158.32,124.028,157.602,121.673,157.561,119.165z"
   id="path3982" />
		</g>
		<g
   id="g3984">
			<path
   fill="#4C9351"
   d="M157.736,119.134c-0.02-2.801,1.789-5.604,3.672-7.35c1.592-1.475,3.568-2.738,6.459-2.762     c2.486-0.01,5.584,1.088,6.557,3.969c1.166,3.451-0.365,7.502-3.07,9.756c-2.869,2.396-6.412,3.572-9.631,2.4     C158.445,123.944,157.762,121.603,157.736,119.134z"
   id="path3986" />
		</g>
		<g
   id="g3988">
			<path
   fill="#4E9453"
   d="M157.91,119.103c-0.002-2.758,1.779-5.49,3.627-7.203c1.572-1.455,3.555-2.695,6.398-2.699     c2.445,0.004,5.467,1.09,6.414,3.938c1.129,3.396-0.385,7.377-3.055,9.598c-2.82,2.355-6.328,3.49-9.496,2.324     C158.572,123.86,157.92,121.532,157.91,119.103z"
   id="path3990" />
		</g>
		<g
   id="g3992">
			<path
   fill="#509555"
   d="M158.086,119.071c0.016-2.715,1.766-5.379,3.58-7.055c1.553-1.438,3.543-2.652,6.336-2.641     c2.406,0.02,5.352,1.096,6.271,3.906c1.094,3.344-0.402,7.254-3.037,9.441c-2.773,2.312-6.244,3.408-9.359,2.248     C158.697,123.776,158.08,121.462,158.086,119.071z"
   id="path3994" />
		</g>
		<g
   id="g3996">
			<path
   fill="#529656"
   d="M158.26,119.038c0.029-2.672,1.756-5.264,3.535-6.906c1.535-1.418,3.529-2.615,6.275-2.582     c2.365,0.031,5.234,1.102,6.127,3.879c1.059,3.289-0.42,7.129-3.018,9.285c-2.729,2.27-6.162,3.322-9.227,2.17     C158.824,123.692,158.234,121.39,158.26,119.038z"
   id="path3998" />
		</g>
		<g
   id="g4000">
			<path
   fill="#559758"
   d="M158.434,119.007c0.053-2.631,1.746-5.152,3.488-6.76c1.518-1.398,3.518-2.572,6.215-2.52     c2.326,0.045,5.121,1.105,5.986,3.848c1.021,3.234-0.439,7.004-3.002,9.127c-2.68,2.227-6.08,3.24-9.092,2.094     C158.949,123.608,158.398,121.321,158.434,119.007z"
   id="path4002" />
		</g>
		<g
   id="g4004">
			<path
   fill="#57985B"
   d="M158.609,118.976c0.064-2.588,1.734-5.039,3.441-6.613c1.498-1.377,3.504-2.529,6.154-2.459     c2.283,0.061,5.004,1.109,5.842,3.816c0.986,3.18-0.457,6.881-2.984,8.971c-2.633,2.186-5.996,3.158-8.957,2.016     C159.076,123.524,158.553,121.249,158.609,118.976z"
   id="path4006" />
		</g>
		<g
   id="g4008">
			<path
   fill="#59995C"
   d="M158.785,118.944c0.08-2.547,1.721-4.928,3.395-6.467c1.479-1.357,3.492-2.484,6.092-2.398     c2.244,0.074,4.889,1.115,5.701,3.787c0.951,3.127-0.477,6.756-2.969,8.814c-2.584,2.143-5.912,3.074-8.82,1.938     C159.201,123.44,158.713,121.179,158.785,118.944z"
   id="path4010" />
		</g>
		<g
   id="g4012">
			<path
   fill="#5B9A5E"
   d="M158.959,118.913c0.1-2.504,1.711-4.816,3.35-6.318c1.459-1.34,3.48-2.443,6.029-2.34     c2.205,0.09,4.775,1.119,5.561,3.756c0.914,3.074-0.496,6.635-2.953,8.658c-2.537,2.102-5.832,2.996-8.686,1.861     C159.326,123.362,158.871,121.108,158.959,118.913z"
   id="path4014" />
		</g>
		<g
   id="g4016">
			<path
   fill="#5D9B60"
   d="M159.133,118.88c0.117-2.461,1.701-4.701,3.305-6.17c1.441-1.32,3.467-2.4,5.969-2.279     c2.164,0.105,4.658,1.125,5.416,3.727c0.879,3.018-0.514,6.51-2.936,8.502c-2.488,2.057-5.746,2.906-8.551,1.783     C159.453,123.272,159.031,121.036,159.133,118.88z"
   id="path4018" />
		</g>
		<g
   id="g4020">
			<path
   fill="#5F9D62"
   d="M159.309,118.849c0.135-2.418,1.689-4.59,3.258-6.023c1.422-1.299,3.453-2.357,5.906-2.219     c2.125,0.119,4.543,1.129,5.275,3.697c0.844,2.963-0.533,6.385-2.92,8.344c-2.441,2.014-5.664,2.83-8.414,1.705     C159.578,123.194,159.189,120.966,159.309,118.849z"
   id="path4022" />
		</g>
		<g
   id="g4024">
			<path
   fill="#619D63"
   d="M159.482,118.817c0.152-2.377,1.68-4.477,3.213-5.877c1.402-1.279,3.441-2.314,5.846-2.158     c2.084,0.135,4.428,1.133,5.131,3.666c0.809,2.91-0.551,6.262-2.9,8.188c-2.396,1.973-5.584,2.748-8.281,1.629     C159.703,123.11,159.35,120.896,159.482,118.817z"
   id="path4026" />
		</g>
		<g
   id="g4028">
			<path
   fill="#629E65"
   d="M159.658,118.786c0.168-2.334,1.666-4.363,3.166-5.729c1.383-1.262,3.43-2.271,5.783-2.1     c2.043,0.15,4.312,1.139,4.988,3.637c0.775,2.855-0.57,6.139-2.883,8.031c-2.348,1.93-5.5,2.662-8.146,1.551     C159.83,123.026,159.51,120.823,159.658,118.786z"
   id="path4030" />
		</g>
		<g
   id="g4032">
			<path
   fill="#649F67"
   d="M159.832,118.755c0.188-2.293,1.656-4.254,3.121-5.584c1.363-1.238,3.416-2.227,5.721-2.037     c2.004,0.164,4.199,1.143,4.848,3.607c0.738,2.799-0.59,6.014-2.867,7.873c-2.301,1.889-5.418,2.58-8.012,1.475     C159.955,122.942,159.668,120.753,159.832,118.755z"
   id="path4034" />
		</g>
		<g
   id="g4036">
			<path
   fill="#66A068"
   d="M160.006,118.722c0.205-2.248,1.646-4.139,3.074-5.434c1.346-1.221,3.404-2.186,5.662-1.979     c1.963,0.18,4.082,1.148,4.705,3.576c0.703,2.746-0.607,5.891-2.852,7.719c-2.252,1.844-5.334,2.496-7.877,1.396     C160.08,122.858,159.828,120.683,160.006,118.722z"
   id="path4038" />
		</g>
		<g
   id="g4040">
			<path
   fill="#68A26A"
   d="M160.182,118.69c0.223-2.207,1.635-4.025,3.027-5.287c1.328-1.201,3.393-2.141,5.6-1.918     c1.924,0.195,3.969,1.152,4.562,3.547c0.67,2.689-0.627,5.766-2.834,7.561c-2.205,1.803-5.25,2.414-7.742,1.318     C160.207,122.774,159.988,120.612,160.182,118.69z"
   id="path4042" />
		</g>
		<g
   id="g4044">
			<path
   fill="#6AA26C"
   d="M160.355,118.659c0.242-2.164,1.625-3.914,2.982-5.141c1.309-1.18,3.379-2.098,5.537-1.857     c1.885,0.211,3.854,1.158,4.422,3.516c0.633,2.639-0.646,5.643-2.818,7.406c-2.156,1.758-5.166,2.328-7.607,1.24     C160.334,122.69,160.146,120.54,160.355,118.659z"
   id="path4046" />
		</g>
		<g
   id="g4048">
			<path
   fill="#6CA46E"
   d="M160.531,118.628c0.258-2.123,1.611-3.801,2.936-4.992c1.289-1.162,3.365-2.057,5.477-1.799     c1.844,0.227,3.74,1.162,4.277,3.486c0.6,2.582-0.664,5.518-2.801,7.248c-2.109,1.717-5.084,2.246-7.471,1.164     C160.459,122.606,160.307,120.47,160.531,118.628z"
   id="path4050" />
		</g>
		<g
   id="g4052">
			<path
   fill="#6FA570"
   d="M160.705,118.597c0.277-2.082,1.602-3.689,2.891-4.846c1.27-1.143,3.354-2.012,5.414-1.736     c1.805,0.24,3.625,1.164,4.137,3.453c0.564,2.529-0.684,5.395-2.785,7.094c-2.062,1.672-5,2.16-7.336,1.086     C160.586,122.522,160.467,120.399,160.705,118.597z"
   id="path4054" />
		</g>
		<g
   id="g4056">
			<path
   fill="#70A671"
   d="M160.881,118.565c0.293-2.039,1.59-3.576,2.844-4.699c1.252-1.121,3.34-1.969,5.354-1.678     c1.762,0.256,3.51,1.17,3.992,3.426c0.529,2.473-0.701,5.271-2.768,6.936c-2.014,1.631-4.916,2.074-7.201,1.008     C160.713,122.435,160.625,120.329,160.881,118.565z"
   id="path4058" />
		</g>
		<g
   id="g4060">
			<path
   fill="#73A773"
   d="M161.055,118.532c0.312-1.996,1.58-3.461,2.799-4.551c1.232-1.102,3.328-1.926,5.291-1.615     c1.723,0.27,3.396,1.174,3.852,3.393c0.496,2.42-0.721,5.148-2.75,6.779c-1.969,1.59-4.832,1.992-7.066,0.932     C160.838,122.351,160.785,120.259,161.055,118.532z"
   id="path4062" />
		</g>
		<g
   id="g4064">
			<path
   fill="#74A875"
   d="M161.229,118.501c0.332-1.953,1.57-3.35,2.754-4.404c1.213-1.082,3.316-1.881,5.229-1.555     c1.684,0.285,3.283,1.178,3.711,3.363c0.461,2.365-0.74,5.023-2.734,6.623c-1.92,1.545-4.75,1.906-6.932,0.854     C160.965,122.267,160.943,120.187,161.229,118.501z"
   id="path4066" />
		</g>
		<g
   id="g4068">
			<path
   fill="#77AA77"
   d="M161.404,118.47c0.348-1.91,1.559-3.238,2.707-4.258c1.193-1.061,3.303-1.838,5.168-1.494     c1.643,0.301,3.168,1.182,3.566,3.332c0.428,2.311-0.758,4.9-2.717,6.467c-1.873,1.504-4.666,1.824-6.797,0.777     C161.092,122.183,161.104,120.116,161.404,118.47z"
   id="path4070" />
		</g>
		<g
   id="g4072">
			<path
   fill="#78AA78"
   d="M161.58,118.438c0.369-1.869,1.547-3.125,2.658-4.111c1.178-1.041,3.291-1.793,5.107-1.436     c1.602,0.318,3.055,1.189,3.424,3.305c0.395,2.256-0.775,4.775-2.699,6.311c-1.826,1.459-4.582,1.74-6.662,0.699     C161.217,122.099,161.268,120.046,161.58,118.438z"
   id="path4074" />
		</g>
		<g
   id="g4076">
			<path
   fill="#7AAB7A"
   d="M161.754,118.407c0.387-1.826,1.537-3.012,2.613-3.963c1.158-1.023,3.277-1.752,5.047-1.375     c1.561,0.33,2.939,1.191,3.281,3.273c0.359,2.201-0.795,4.65-2.684,6.152c-1.779,1.418-4.5,1.658-6.525,0.621     C161.342,122.015,161.426,119.976,161.754,118.407z"
   id="path4078" />
		</g>
		<g
   id="g4080">
			<path
   fill="#7CAD7C"
   d="M161.928,118.376c0.406-1.785,1.527-2.9,2.568-3.816c1.139-1.004,3.264-1.703,4.984-1.314     c1.521,0.352,2.828,1.195,3.139,3.242c0.328,2.146-0.814,4.529-2.666,5.996c-1.73,1.377-4.416,1.576-6.391,0.545     C161.469,121.931,161.586,119.905,161.928,118.376z"
   id="path4082" />
		</g>
		<g
   id="g4084">
			<path
   fill="#7EAE7D"
   d="M162.104,118.343c0.422-1.74,1.516-2.785,2.521-3.668c1.121-0.982,3.252-1.66,4.924-1.254     c1.479,0.365,2.713,1.199,2.996,3.213c0.295,2.092-0.834,4.404-2.65,5.84c-1.684,1.334-4.334,1.49-6.256,0.467     C161.594,121.847,161.746,119.835,162.104,118.343z"
   id="path4086" />
		</g>
		<g
   id="g4088">
			<path
   fill="#80AF80"
   d="M162.277,118.312c0.441-1.699,1.506-2.672,2.477-3.52c1.104-0.965,3.238-1.619,4.861-1.195     c1.441,0.381,2.602,1.205,2.855,3.184c0.26,2.037-0.852,4.279-2.633,5.682c-1.637,1.291-4.252,1.408-6.121,0.391     C161.721,121.763,161.904,119.763,162.277,118.312z"
   id="path4090" />
		</g>
		<g
   id="g4092">
			<path
   fill="#82B081"
   d="M162.453,118.28c0.457-1.656,1.492-2.561,2.43-3.373c1.084-0.943,3.227-1.576,4.799-1.135     c1.402,0.395,2.488,1.209,2.713,3.152c0.229,1.982-0.871,4.156-2.615,5.525c-1.59,1.25-4.168,1.326-5.988,0.314     C161.846,121.679,162.064,119.692,162.453,118.28z"
   id="path4094" />
		</g>
		<g
   id="g4096">
			<path
   fill="#84B183"
   d="M162.627,118.249c0.477-1.615,1.486-2.445,2.383-3.227c1.068-0.922,3.215-1.531,4.74-1.074     c1.359,0.41,2.377,1.215,2.57,3.123c0.195,1.928-0.891,4.031-2.6,5.369c-1.541,1.205-4.086,1.24-5.852,0.234     C161.973,121.595,162.223,119.622,162.627,118.249z"
   id="path4098" />
		</g>
		<g
   id="g4100">
			<path
   fill="#86B285"
   d="M162.801,118.218c-0.418,1.332-0.703,3.293,1.145,4.369c1.715,1,4.223,1.006,5.717-0.158     c1.674-1.303,2.744-3.338,2.582-5.213c-0.164-1.873-1.107-2.666-2.428-3.092c-1.477-0.475-3.629,0.113-4.678,1.014     C164.275,115.884,163.295,116.646,162.801,118.218z"
   id="path4102" />
		</g>
	</g>
</g>
<g
   id="Layer_6">
	<path
   fill="#FFFFFF"
   d="M125.343,121.853c1.56,0.939,1.586-0.209,2.683-1.307s2.106-1.123,1.288-2.666   c-0.677-1.277-2.375-0.691-3.471,0.406C124.747,119.382,124.104,121.103,125.343,121.853z"
   id="path4105" />
</g>


<g
   id="Layer_3">
	<g
   id="g4116">
		<path
   fill="#5E9C61"
   d="M152.32,160.136c-1.801,0.225-3.631,0.355-5.494,0.355c-0.408,0-0.812-0.014-1.217-0.025    c-2.067-0.057-4.098-0.252-6.083-0.586c1.073-7.646,2.186-14.391-0.519-21.869c2.472,1.965,3.02,1.895,4.859,1.826    c2.424-0.094,3.303-1.117,9.268-5.43c0,3.842-0.625,10.891,1.908,14.457c2.303,3.24,4.648,7.137,5.812,9.324    C158.121,159.11,155.266,159.769,152.32,160.136z"
   id="path4118" />
	</g>
</g>
<g
   id="Layer_2">
	<path
   fill="#FFFFFF"
   d="M165.643,121.444c1.531,0.988,1.592-0.16,2.723-1.223c1.129-1.064,2.139-1.059,1.367-2.627   c-0.637-1.297-2.352-0.762-3.48,0.301C165.121,118.958,164.428,120.659,165.643,121.444z"
   id="path4121" />
</g>
</svg>