<?xml version="1.0" encoding="utf-8" standalone="no"?><!DOCTYPE svg PUBLIC "-//W3C//DTD SVG 20010904//EN" "http://www.w3.org/TR/2001/REC-SVG-20010904/DTD/svg10.dtd"><svg xmlns="http://www.w3.org/2000/svg" width="1530" height="635" xmlns:xlink="http://www.w3.org/1999/xlink"><source><![CDATA[Title: Sequence of Saving
Workbench->ProjectSaver: Save these
ProjectSaver->MantidQtModule: Get list of interfaces
MantidQtModule->ProjectSaver: List of interfaces
ProjectSaver->EncoderFactory: Get Encoder for interface X
EncoderFactory->ProjectSaver: Encoder for interface X
ProjectSaver->InterfaceXEncoder: Encode interface X
InterfaceXEncoder->InterfaceXAttributes: Get Interface X tags
InterfaceXAttributes->InterfaceXEncoder: List of tags
InterfaceXEncoder->ProjectSaver: Encoded Key value pair
ProjectSaver->ProjectWriter: Write out these encoded key value pairs
ProjecyWriter->ProjectSaver: Done
ProjectSaver->Workbench: Done]]></source><desc>Sequence of Saving</desc><defs><marker viewBox="0 0 5 5" markerWidth="5" markerHeight="5" orient="auto" refX="5" refY="2.5" id="markerArrowBlock"><path d="M 0 0 L 5 2.5 L 0 5 z"></path></marker><marker viewBox="0 0 9.6 16" markerWidth="4" markerHeight="16" orient="auto" refX="9.6" refY="8" id="markerArrowOpen"><path d="M 9.6,8 1.92,16 0,13.7 5.76,8 0,2.286 1.92,0 9.6,8 z"></path></marker></defs><g class="title"><rect x="10" y="10" width="190" height="29" style="stroke-width: 2;" stroke="#000000" fill="#ffffff"></rect><text x="15" y="30" style="font-size: 16px; font-family: Andale Mono, monospace;"><tspan x="15">Sequence of Saving</tspan></text></g><g class="actor"><rect x="10" y="49" width="110" height="39" style="stroke-width: 2;" stroke="#000000" fill="#ffffff"></rect><text x="20" y="74" style="font-size: 16px; font-family: Andale Mono, monospace;"><tspan x="20">Workbench</tspan></text></g><g class="actor"><rect x="10" y="576" width="110" height="39" style="stroke-width: 2;" stroke="#000000" fill="#ffffff"></rect><text x="20" y="601" style="font-size: 16px; font-family: Andale Mono, monospace;"><tspan x="20">Workbench</tspan></text></g><line x1="65" x2="65" y1="88" y2="576" style="stroke-width: 2;" stroke="#000000" fill="none"></line><g class="actor"><rect x="140" y="49" width="140" height="39" style="stroke-width: 2;" stroke="#000000" fill="#ffffff"></rect><text x="150" y="74" style="font-size: 16px; font-family: Andale Mono, monospace;"><tspan x="150">ProjectSaver</tspan></text></g><g class="actor"><rect x="140" y="576" width="140" height="39" style="stroke-width: 2;" stroke="#000000" fill="#ffffff"></rect><text x="150" y="601" style="font-size: 16px; font-family: Andale Mono, monospace;"><tspan x="150">ProjectSaver</tspan></text></g><line x1="210" x2="210" y1="88" y2="576" style="stroke-width: 2;" stroke="#000000" fill="none"></line><g class="actor"><rect x="370" y="49" width="160" height="39" style="stroke-width: 2;" stroke="#000000" fill="#ffffff"></rect><text x="380" y="74" style="font-size: 16px; font-family: Andale Mono, monospace;"><tspan x="380">MantidQtModule</tspan></text></g><g class="actor"><rect x="370" y="576" width="160" height="39" style="stroke-width: 2;" stroke="#000000" fill="#ffffff"></rect><text x="380" y="601" style="font-size: 16px; font-family: Andale Mono, monospace;"><tspan x="380">MantidQtModule</tspan></text></g><line x1="450" x2="450" y1="88" y2="576" style="stroke-width: 2;" stroke="#000000" fill="none"></line><g class="actor"><rect x="550" y="49" width="160" height="39" style="stroke-width: 2;" stroke="#000000" fill="#ffffff"></rect><text x="560" y="74" style="font-size: 16px; font-family: Andale Mono, monospace;"><tspan x="560">EncoderFactory</tspan></text></g><g class="actor"><rect x="550" y="576" width="160" height="39" style="stroke-width: 2;" stroke="#000000" fill="#ffffff"></rect><text x="560" y="601" style="font-size: 16px; font-family: Andale Mono, monospace;"><tspan x="560">EncoderFactory</tspan></text></g><line x1="630" x2="630" y1="88" y2="576" style="stroke-width: 2;" stroke="#000000" fill="none"></line><g class="actor"><rect x="730" y="49" width="190" height="39" style="stroke-width: 2;" stroke="#000000" fill="#ffffff"></rect><text x="740" y="74" style="font-size: 16px; font-family: Andale Mono, monospace;"><tspan x="740">InterfaceXEncoder</tspan></text></g><g class="actor"><rect x="730" y="576" width="190" height="39" style="stroke-width: 2;" stroke="#000000" fill="#ffffff"></rect><text x="740" y="601" style="font-size: 16px; font-family: Andale Mono, monospace;"><tspan x="740">InterfaceXEncoder</tspan></text></g><line x1="825" x2="825" y1="88" y2="576" style="stroke-width: 2;" stroke="#000000" fill="none"></line><g class="actor"><rect x="940" y="49" width="220" height="39" style="stroke-width: 2;" stroke="#000000" fill="#ffffff"></rect><text x="950" y="74" style="font-size: 16px; font-family: Andale Mono, monospace;"><tspan x="950">InterfaceXAttributes</tspan></text></g><g class="actor"><rect x="940" y="576" width="220" height="39" style="stroke-width: 2;" stroke="#000000" fill="#ffffff"></rect><text x="950" y="601" style="font-size: 16px; font-family: Andale Mono, monospace;"><tspan x="950">InterfaceXAttributes</tspan></text></g><line x1="1050" x2="1050" y1="88" y2="576" style="stroke-width: 2;" stroke="#000000" fill="none"></line><g class="actor"><rect x="1180" y="49" width="150" height="39" style="stroke-width: 2;" stroke="#000000" fill="#ffffff"></rect><text x="1190" y="74" style="font-size: 16px; font-family: Andale Mono, monospace;"><tspan x="1190">ProjectWriter</tspan></text></g><g class="actor"><rect x="1180" y="576" width="150" height="39" style="stroke-width: 2;" stroke="#000000" fill="#ffffff"></rect><text x="1190" y="601" style="font-size: 16px; font-family: Andale Mono, monospace;"><tspan x="1190">ProjectWriter</tspan></text></g><line x1="1255" x2="1255" y1="88" y2="576" style="stroke-width: 2;" stroke="#000000" fill="none"></line><g class="actor"><rect x="1350" y="49" width="150" height="39" style="stroke-width: 2;" stroke="#000000" fill="#ffffff"></rect><text x="1360" y="74" style="font-size: 16px; font-family: Andale Mono, monospace;"><tspan x="1360">ProjecyWriter</tspan></text></g><g class="actor"><rect x="1350" y="576" width="150" height="39" style="stroke-width: 2;" stroke="#000000" fill="#ffffff"></rect><text x="1360" y="601" style="font-size: 16px; font-family: Andale Mono, monospace;"><tspan x="1360">ProjecyWriter</tspan></text></g><line x1="1425" x2="1425" y1="88" y2="576" style="stroke-width: 2;" stroke="#000000" fill="none"></line><g class="signal"><text x="87.5" y="118.5" style="font-size: 16px; font-family: Andale Mono, monospace;"><tspan x="87.5">Save these</tspan></text><line x1="65" x2="210" y1="127" y2="127" style="stroke-width: 2; marker-end: url(&quot;#markerArrowBlock&quot;);" stroke="#000000" fill="none"></line></g><g class="signal"><text x="220" y="157.5" style="font-size: 16px; font-family: Andale Mono, monospace;"><tspan x="220">Get list of interfaces</tspan></text><line x1="210" x2="450" y1="166" y2="166" style="stroke-width: 2; marker-end: url(&quot;#markerArrowBlock&quot;);" stroke="#000000" fill="none"></line></g><g class="signal"><text x="240" y="196.5" style="font-size: 16px; font-family: Andale Mono, monospace;"><tspan x="240">List of interfaces</tspan></text><line x1="450" x2="210" y1="205" y2="205" style="stroke-width: 2; marker-end: url(&quot;#markerArrowBlock&quot;);" stroke="#000000" fill="none"></line></g><g class="signal"><text x="285" y="235.5" style="font-size: 16px; font-family: Andale Mono, monospace;"><tspan x="285">Get Encoder for interface X</tspan></text><line x1="210" x2="630" y1="244" y2="244" style="stroke-width: 2; marker-end: url(&quot;#markerArrowBlock&quot;);" stroke="#000000" fill="none"></line></g><g class="signal"><text x="305" y="274.5" style="font-size: 16px; font-family: Andale Mono, monospace;"><tspan x="305">Encoder for interface X</tspan></text><line x1="630" x2="210" y1="283" y2="283" style="stroke-width: 2; marker-end: url(&quot;#markerArrowBlock&quot;);" stroke="#000000" fill="none"></line></g><g class="signal"><text x="427.5" y="313.5" style="font-size: 16px; font-family: Andale Mono, monospace;"><tspan x="427.5">Encode interface X</tspan></text><line x1="210" x2="825" y1="322" y2="322" style="stroke-width: 2; marker-end: url(&quot;#markerArrowBlock&quot;);" stroke="#000000" fill="none"></line></g><g class="signal"><text x="837.5" y="352.5" style="font-size: 16px; font-family: Andale Mono, monospace;"><tspan x="837.5">Get Interface X tags</tspan></text><line x1="825" x2="1050" y1="361" y2="361" style="stroke-width: 2; marker-end: url(&quot;#markerArrowBlock&quot;);" stroke="#000000" fill="none"></line></g><g class="signal"><text x="877.5" y="391.5" style="font-size: 16px; font-family: Andale Mono, monospace;"><tspan x="877.5">List of tags</tspan></text><line x1="1050" x2="825" y1="400" y2="400" style="stroke-width: 2; marker-end: url(&quot;#markerArrowBlock&quot;);" stroke="#000000" fill="none"></line></g><g class="signal"><text x="407.5" y="430.5" style="font-size: 16px; font-family: Andale Mono, monospace;"><tspan x="407.5">Encoded Key value pair</tspan></text><line x1="825" x2="210" y1="439" y2="439" style="stroke-width: 2; marker-end: url(&quot;#markerArrowBlock&quot;);" stroke="#000000" fill="none"></line></g><g class="signal"><text x="537.5" y="469.5" style="font-size: 16px; font-family: Andale Mono, monospace;"><tspan x="537.5">Write out these encoded key value pairs</tspan></text><line x1="210" x2="1255" y1="478" y2="478" style="stroke-width: 2; marker-end: url(&quot;#markerArrowBlock&quot;);" stroke="#000000" fill="none"></line></g><g class="signal"><text x="797.5" y="508.5" style="font-size: 16px; font-family: Andale Mono, monospace;"><tspan x="797.5">Done</tspan></text><line x1="1425" x2="210" y1="517" y2="517" style="stroke-width: 2; marker-end: url(&quot;#markerArrowBlock&quot;);" stroke="#000000" fill="none"></line></g><g class="signal"><text x="117.5" y="547.5" style="font-size: 16px; font-family: Andale Mono, monospace;"><tspan x="117.5">Done</tspan></text><line x1="210" x2="65" y1="556" y2="556" style="stroke-width: 2; marker-end: url(&quot;#markerArrowBlock&quot;);" stroke="#000000" fill="none"></line></g></svg>